<mxfile host="Electron" agent="Mozilla/5.0 (Windows NT 10.0; Win64; x64) AppleWebKit/537.36 (KHTML, like Gecko) draw.io/24.7.17 Chrome/128.0.6613.36 Electron/32.0.1 Safari/537.36" version="24.7.17" pages="21">
  <diagram id="oIFm4z_X4snqJ1kSCFAP" name="req1">
    <mxGraphModel dx="1925" dy="639" grid="1" gridSize="10" guides="1" tooltips="1" connect="1" arrows="1" fold="1" page="1" pageScale="1" pageWidth="800" pageHeight="500" backgroundImage="{&quot;src&quot;:&quot;data:page/id,pKgziUaKLTQ8jrkvlHAj&quot;}" math="0" shadow="0">
      <root>
        <mxCell id="0" />
        <mxCell id="1" parent="0" />
        <mxCell id="8mW3CwOdeR5deNNYWT8k-1" value="" style="shape=waypoint;sketch=0;size=6;pointerEvents=1;points=[];fillColor=none;resizable=0;rotatable=0;perimeter=centerPerimeter;snapToPoint=1;strokeColor=none;" vertex="1" parent="1">
          <mxGeometry x="-646" y="30" width="20" height="20" as="geometry" />
        </mxCell>
        <mxCell id="8mW3CwOdeR5deNNYWT8k-2" value="" style="shape=waypoint;sketch=0;size=6;pointerEvents=1;points=[];fillColor=none;resizable=0;rotatable=0;perimeter=centerPerimeter;snapToPoint=1;strokeColor=none;" vertex="1" parent="1">
          <mxGeometry x="-249" y="30" width="20" height="20" as="geometry" />
        </mxCell>
        <mxCell id="fjeYnKVeESPtUlYOtK3B-1" value="Patient 1" style="rounded=1;whiteSpace=wrap;html=1;align=left;verticalAlign=top;spacingTop=0;spacing=2;spacingLeft=4;fontSize=14;fontStyle=1;strokeColor=#000000;" vertex="1" parent="1">
          <mxGeometry x="-750" y="60" width="130" height="25" as="geometry" />
        </mxCell>
        <mxCell id="fjeYnKVeESPtUlYOtK3B-2" value="ServiceRequest 1" style="rounded=1;whiteSpace=wrap;html=1;align=left;verticalAlign=top;spacingTop=0;spacing=2;spacingLeft=4;fontSize=14;fontStyle=1;strokeColor=#9673a6;fillColor=#e1d5e7;" vertex="1" parent="1">
          <mxGeometry x="-750" y="90" width="130" height="25" as="geometry" />
        </mxCell>
        <mxCell id="E9zrymjbYse9y2J5UlxT-1" value="" style="shape=actor;whiteSpace=wrap;html=1;fillColor=#000000;" vertex="1" parent="1">
          <mxGeometry x="-730" y="34" width="18" height="22" as="geometry" />
        </mxCell>
      </root>
    </mxGraphModel>
  </diagram>
  <diagram name="req2" id="C8I521wdOyFeGQZYzCJa">
    <mxGraphModel dx="2375" dy="895" grid="1" gridSize="10" guides="1" tooltips="1" connect="1" arrows="1" fold="1" page="1" pageScale="1" pageWidth="800" pageHeight="500" backgroundImage="{&quot;src&quot;:&quot;data:page/id,pKgziUaKLTQ8jrkvlHAj&quot;}" math="0" shadow="0">
      <root>
        <mxCell id="OTgTlXCNlcUA35HG-kM--0" />
        <mxCell id="OTgTlXCNlcUA35HG-kM--1" parent="OTgTlXCNlcUA35HG-kM--0" />
        <mxCell id="RFl-78plUOuFBB6F81aq-0" style="edgeStyle=orthogonalEdgeStyle;rounded=0;orthogonalLoop=1;jettySize=auto;html=1;entryX=0;entryY=0.5;entryDx=0;entryDy=0;" edge="1" parent="OTgTlXCNlcUA35HG-kM--1" source="OTgTlXCNlcUA35HG-kM--2" target="OTgTlXCNlcUA35HG-kM--8">
          <mxGeometry relative="1" as="geometry" />
        </mxCell>
        <mxCell id="RFl-78plUOuFBB6F81aq-1" style="edgeStyle=orthogonalEdgeStyle;rounded=0;orthogonalLoop=1;jettySize=auto;html=1;entryX=0;entryY=0.5;entryDx=0;entryDy=0;" edge="1" parent="OTgTlXCNlcUA35HG-kM--1" source="OTgTlXCNlcUA35HG-kM--2" target="OTgTlXCNlcUA35HG-kM--7">
          <mxGeometry relative="1" as="geometry" />
        </mxCell>
        <mxCell id="RFl-78plUOuFBB6F81aq-2" style="edgeStyle=orthogonalEdgeStyle;rounded=0;orthogonalLoop=1;jettySize=auto;html=1;entryX=0;entryY=0.5;entryDx=0;entryDy=0;" edge="1" parent="OTgTlXCNlcUA35HG-kM--1" source="OTgTlXCNlcUA35HG-kM--2" target="OTgTlXCNlcUA35HG-kM--6">
          <mxGeometry relative="1" as="geometry" />
        </mxCell>
        <mxCell id="OTgTlXCNlcUA35HG-kM--2" value="" style="shape=waypoint;sketch=0;size=6;pointerEvents=1;points=[];fillColor=none;resizable=0;rotatable=0;perimeter=centerPerimeter;snapToPoint=1;strokeColor=none;" vertex="1" parent="OTgTlXCNlcUA35HG-kM--1">
          <mxGeometry x="-646" y="30" width="20" height="20" as="geometry" />
        </mxCell>
        <mxCell id="OTgTlXCNlcUA35HG-kM--3" value="" style="shape=waypoint;sketch=0;size=6;pointerEvents=1;points=[];fillColor=none;resizable=0;rotatable=0;perimeter=centerPerimeter;snapToPoint=1;strokeColor=none;" vertex="1" parent="OTgTlXCNlcUA35HG-kM--1">
          <mxGeometry x="-249" y="30" width="20" height="20" as="geometry" />
        </mxCell>
        <mxCell id="OTgTlXCNlcUA35HG-kM--4" value="Patient 1" style="rounded=1;whiteSpace=wrap;html=1;align=left;verticalAlign=top;spacingTop=0;spacing=2;spacingLeft=4;fontSize=14;fontStyle=1;strokeColor=#000000;" vertex="1" parent="OTgTlXCNlcUA35HG-kM--1">
          <mxGeometry x="-750" y="60" width="130" height="25" as="geometry" />
        </mxCell>
        <mxCell id="OTgTlXCNlcUA35HG-kM--5" value="ServiceRequest 1" style="rounded=1;whiteSpace=wrap;html=1;align=left;verticalAlign=top;spacingTop=0;spacing=2;spacingLeft=4;fontSize=14;fontStyle=1;strokeColor=#000000;" vertex="1" parent="OTgTlXCNlcUA35HG-kM--1">
          <mxGeometry x="-750" y="90" width="130" height="25" as="geometry" />
        </mxCell>
        <mxCell id="OTgTlXCNlcUA35HG-kM--6" value="Patient 1&#39;" style="rounded=1;whiteSpace=wrap;html=1;align=left;verticalAlign=top;spacingTop=0;spacing=2;spacingLeft=4;fontSize=14;fontStyle=1;strokeColor=#9673a6;fillColor=#e1d5e7;" vertex="1" parent="OTgTlXCNlcUA35HG-kM--1">
          <mxGeometry x="-570" y="60.5" width="130" height="25" as="geometry" />
        </mxCell>
        <mxCell id="OTgTlXCNlcUA35HG-kM--7" value="ServiceRequest 1&#39;" style="rounded=1;whiteSpace=wrap;html=1;align=left;verticalAlign=top;spacingTop=0;spacing=2;spacingLeft=4;fontSize=14;fontStyle=1;strokeColor=#9673a6;fillColor=#e1d5e7;" vertex="1" parent="OTgTlXCNlcUA35HG-kM--1">
          <mxGeometry x="-570" y="90" width="130" height="25" as="geometry" />
        </mxCell>
        <mxCell id="OTgTlXCNlcUA35HG-kM--8" value="Task 1to2&lt;div&gt;status: requested&lt;/div&gt;" style="rounded=1;whiteSpace=wrap;html=1;align=left;verticalAlign=top;spacingTop=0;spacing=2;spacingLeft=4;fontSize=14;fontStyle=1;strokeColor=#9673a6;fillColor=#e1d5e7;" vertex="1" parent="OTgTlXCNlcUA35HG-kM--1">
          <mxGeometry x="-570" y="120" width="130" height="43.5" as="geometry" />
        </mxCell>
        <mxCell id="RFl-78plUOuFBB6F81aq-3" style="edgeStyle=orthogonalEdgeStyle;rounded=0;orthogonalLoop=1;jettySize=auto;html=1;entryX=0.9;entryY=0.5;entryDx=0;entryDy=0;entryPerimeter=0;dashed=1;dashPattern=8 8;" edge="1" parent="OTgTlXCNlcUA35HG-kM--1" source="OTgTlXCNlcUA35HG-kM--8" target="OTgTlXCNlcUA35HG-kM--3">
          <mxGeometry relative="1" as="geometry">
            <Array as="points">
              <mxPoint x="-360" y="142" />
              <mxPoint x="-360" y="40" />
            </Array>
          </mxGeometry>
        </mxCell>
        <mxCell id="VkB6yo8gZ16Lr-XajNLl-0" value="" style="shape=actor;whiteSpace=wrap;html=1;fillColor=#000000;" vertex="1" parent="OTgTlXCNlcUA35HG-kM--1">
          <mxGeometry x="-730" y="34" width="18" height="22" as="geometry" />
        </mxCell>
      </root>
    </mxGraphModel>
  </diagram>
  <diagram name="req3" id="3zLnN49RG7-VDzvaH05s">
    <mxGraphModel dx="2375" dy="895" grid="1" gridSize="10" guides="1" tooltips="1" connect="1" arrows="1" fold="1" page="1" pageScale="1" pageWidth="800" pageHeight="500" backgroundImage="{&quot;src&quot;:&quot;data:page/id,pKgziUaKLTQ8jrkvlHAj&quot;}" math="0" shadow="0">
      <root>
        <mxCell id="GLYsBreH64pikmjK4zRz-0" />
        <mxCell id="GLYsBreH64pikmjK4zRz-1" parent="GLYsBreH64pikmjK4zRz-0" />
        <mxCell id="GLYsBreH64pikmjK4zRz-5" value="" style="shape=waypoint;sketch=0;size=6;pointerEvents=1;points=[];fillColor=none;resizable=0;rotatable=0;perimeter=centerPerimeter;snapToPoint=1;strokeColor=none;" vertex="1" parent="GLYsBreH64pikmjK4zRz-1">
          <mxGeometry x="-646" y="30" width="20" height="20" as="geometry" />
        </mxCell>
        <mxCell id="dMzLTAPWY6uEat5usKvN-0" style="edgeStyle=orthogonalEdgeStyle;rounded=0;orthogonalLoop=1;jettySize=auto;html=1;entryX=1;entryY=0.5;entryDx=0;entryDy=0;" edge="1" parent="GLYsBreH64pikmjK4zRz-1" source="GLYsBreH64pikmjK4zRz-6" target="GLYsBreH64pikmjK4zRz-11">
          <mxGeometry relative="1" as="geometry" />
        </mxCell>
        <mxCell id="GLYsBreH64pikmjK4zRz-6" value="" style="shape=waypoint;sketch=0;size=6;pointerEvents=1;points=[];fillColor=none;resizable=0;rotatable=0;perimeter=centerPerimeter;snapToPoint=1;strokeColor=none;" vertex="1" parent="GLYsBreH64pikmjK4zRz-1">
          <mxGeometry x="-249" y="30" width="20" height="20" as="geometry" />
        </mxCell>
        <mxCell id="GLYsBreH64pikmjK4zRz-7" value="Patient 1" style="rounded=1;whiteSpace=wrap;html=1;align=left;verticalAlign=top;spacingTop=0;spacing=2;spacingLeft=4;fontSize=14;fontStyle=1;strokeColor=#000000;" vertex="1" parent="GLYsBreH64pikmjK4zRz-1">
          <mxGeometry x="-750" y="60" width="130" height="25" as="geometry" />
        </mxCell>
        <mxCell id="GLYsBreH64pikmjK4zRz-8" value="ServiceRequest 1" style="rounded=1;whiteSpace=wrap;html=1;align=left;verticalAlign=top;spacingTop=0;spacing=2;spacingLeft=4;fontSize=14;fontStyle=1;strokeColor=#000000;" vertex="1" parent="GLYsBreH64pikmjK4zRz-1">
          <mxGeometry x="-750" y="90" width="130" height="25" as="geometry" />
        </mxCell>
        <mxCell id="GLYsBreH64pikmjK4zRz-9" value="Patient 1&#39;" style="rounded=1;whiteSpace=wrap;html=1;align=left;verticalAlign=top;spacingTop=0;spacing=2;spacingLeft=4;fontSize=14;fontStyle=1;" vertex="1" parent="GLYsBreH64pikmjK4zRz-1">
          <mxGeometry x="-570" y="60.5" width="130" height="25" as="geometry" />
        </mxCell>
        <mxCell id="GLYsBreH64pikmjK4zRz-10" value="ServiceRequest 1&#39;" style="rounded=1;whiteSpace=wrap;html=1;align=left;verticalAlign=top;spacingTop=0;spacing=2;spacingLeft=4;fontSize=14;fontStyle=1;" vertex="1" parent="GLYsBreH64pikmjK4zRz-1">
          <mxGeometry x="-570" y="90" width="130" height="25" as="geometry" />
        </mxCell>
        <mxCell id="GLYsBreH64pikmjK4zRz-11" value="Task 1to2 v2&lt;div&gt;status: accepted&lt;/div&gt;" style="rounded=1;whiteSpace=wrap;html=1;align=left;verticalAlign=top;spacingTop=0;spacing=2;spacingLeft=4;fontSize=14;fontStyle=1;strokeColor=#9673a6;fillColor=#e1d5e7;" vertex="1" parent="GLYsBreH64pikmjK4zRz-1">
          <mxGeometry x="-570" y="120" width="130" height="43.5" as="geometry" />
        </mxCell>
        <mxCell id="wqa3mMnxuz_1Q1YnucNm-0" style="edgeStyle=orthogonalEdgeStyle;rounded=0;orthogonalLoop=1;jettySize=auto;html=1;exitX=0;exitY=0.5;exitDx=0;exitDy=0;entryX=0.75;entryY=0.7;entryDx=0;entryDy=0;entryPerimeter=0;dashed=1;dashPattern=8 8;" edge="1" parent="GLYsBreH64pikmjK4zRz-1" source="GLYsBreH64pikmjK4zRz-11" target="GLYsBreH64pikmjK4zRz-5">
          <mxGeometry relative="1" as="geometry">
            <Array as="points">
              <mxPoint x="-600" y="142" />
              <mxPoint x="-600" y="40" />
            </Array>
          </mxGeometry>
        </mxCell>
        <mxCell id="gGKBf5K0x1CtBpzXUHvj-0" value="" style="shape=actor;whiteSpace=wrap;html=1;fillColor=#000000;" vertex="1" parent="GLYsBreH64pikmjK4zRz-1">
          <mxGeometry x="-730" y="34" width="18" height="22" as="geometry" />
        </mxCell>
        <mxCell id="aaj2kKD92oAHSrmtfPDu-0" value="" style="shape=waypoint;sketch=0;size=6;pointerEvents=1;points=[];fillColor=none;resizable=0;rotatable=0;perimeter=centerPerimeter;snapToPoint=1;strokeColor=none;" vertex="1" parent="GLYsBreH64pikmjK4zRz-1">
          <mxGeometry x="-646" y="30" width="20" height="20" as="geometry" />
        </mxCell>
        <mxCell id="aaj2kKD92oAHSrmtfPDu-1" style="edgeStyle=orthogonalEdgeStyle;rounded=0;orthogonalLoop=1;jettySize=auto;html=1;entryX=1;entryY=0.5;entryDx=0;entryDy=0;" edge="1" parent="GLYsBreH64pikmjK4zRz-1" source="aaj2kKD92oAHSrmtfPDu-2" target="aaj2kKD92oAHSrmtfPDu-7">
          <mxGeometry relative="1" as="geometry" />
        </mxCell>
        <mxCell id="aaj2kKD92oAHSrmtfPDu-2" value="" style="shape=waypoint;sketch=0;size=6;pointerEvents=1;points=[];fillColor=none;resizable=0;rotatable=0;perimeter=centerPerimeter;snapToPoint=1;strokeColor=none;" vertex="1" parent="GLYsBreH64pikmjK4zRz-1">
          <mxGeometry x="-249" y="30" width="20" height="20" as="geometry" />
        </mxCell>
        <mxCell id="aaj2kKD92oAHSrmtfPDu-3" value="Patient 1" style="rounded=1;whiteSpace=wrap;html=1;align=left;verticalAlign=top;spacingTop=0;spacing=2;spacingLeft=4;fontSize=14;fontStyle=1;strokeColor=#000000;" vertex="1" parent="GLYsBreH64pikmjK4zRz-1">
          <mxGeometry x="-750" y="60" width="130" height="25" as="geometry" />
        </mxCell>
        <mxCell id="aaj2kKD92oAHSrmtfPDu-4" value="ServiceRequest 1" style="rounded=1;whiteSpace=wrap;html=1;align=left;verticalAlign=top;spacingTop=0;spacing=2;spacingLeft=4;fontSize=14;fontStyle=1;strokeColor=#000000;" vertex="1" parent="GLYsBreH64pikmjK4zRz-1">
          <mxGeometry x="-750" y="90" width="130" height="25" as="geometry" />
        </mxCell>
        <mxCell id="aaj2kKD92oAHSrmtfPDu-5" value="Patient 1&#39;" style="rounded=1;whiteSpace=wrap;html=1;align=left;verticalAlign=top;spacingTop=0;spacing=2;spacingLeft=4;fontSize=14;fontStyle=1;" vertex="1" parent="GLYsBreH64pikmjK4zRz-1">
          <mxGeometry x="-570" y="60.5" width="130" height="25" as="geometry" />
        </mxCell>
        <mxCell id="aaj2kKD92oAHSrmtfPDu-6" value="ServiceRequest 1&#39;" style="rounded=1;whiteSpace=wrap;html=1;align=left;verticalAlign=top;spacingTop=0;spacing=2;spacingLeft=4;fontSize=14;fontStyle=1;" vertex="1" parent="GLYsBreH64pikmjK4zRz-1">
          <mxGeometry x="-570" y="90" width="130" height="25" as="geometry" />
        </mxCell>
        <mxCell id="aaj2kKD92oAHSrmtfPDu-7" value="Task 1to2 v2&lt;div&gt;status: accepted&lt;/div&gt;" style="rounded=1;whiteSpace=wrap;html=1;align=left;verticalAlign=top;spacingTop=0;spacing=2;spacingLeft=4;fontSize=14;fontStyle=1;strokeColor=#9673a6;fillColor=#e1d5e7;" vertex="1" parent="GLYsBreH64pikmjK4zRz-1">
          <mxGeometry x="-570" y="120" width="130" height="43.5" as="geometry" />
        </mxCell>
        <mxCell id="aaj2kKD92oAHSrmtfPDu-8" style="edgeStyle=orthogonalEdgeStyle;rounded=0;orthogonalLoop=1;jettySize=auto;html=1;exitX=0;exitY=0.5;exitDx=0;exitDy=0;entryX=0.75;entryY=0.7;entryDx=0;entryDy=0;entryPerimeter=0;dashed=1;dashPattern=8 8;" edge="1" parent="GLYsBreH64pikmjK4zRz-1" source="aaj2kKD92oAHSrmtfPDu-7" target="aaj2kKD92oAHSrmtfPDu-0">
          <mxGeometry relative="1" as="geometry">
            <Array as="points">
              <mxPoint x="-600" y="142" />
              <mxPoint x="-600" y="40" />
            </Array>
          </mxGeometry>
        </mxCell>
        <mxCell id="aaj2kKD92oAHSrmtfPDu-9" value="" style="shape=actor;whiteSpace=wrap;html=1;fillColor=#000000;" vertex="1" parent="GLYsBreH64pikmjK4zRz-1">
          <mxGeometry x="-730" y="34" width="18" height="22" as="geometry" />
        </mxCell>
      </root>
    </mxGraphModel>
  </diagram>
  <diagram name="cpct1" id="_V94AVJxmUGpcY35ij8S">
    <mxGraphModel dx="1886" dy="617" grid="1" gridSize="10" guides="1" tooltips="1" connect="1" arrows="1" fold="1" page="1" pageScale="1" pageWidth="800" pageHeight="500" backgroundImage="{&quot;src&quot;:&quot;data:page/id,pKgziUaKLTQ8jrkvlHAj&quot;}" math="0" shadow="0">
      <root>
        <mxCell id="4yLjCpRfhNSffjeKv-Rc-0" />
        <mxCell id="4yLjCpRfhNSffjeKv-Rc-1" parent="4yLjCpRfhNSffjeKv-Rc-0" />
        <mxCell id="4yLjCpRfhNSffjeKv-Rc-2" value="" style="shape=waypoint;sketch=0;size=6;pointerEvents=1;points=[];fillColor=none;resizable=0;rotatable=0;perimeter=centerPerimeter;snapToPoint=1;strokeColor=none;" vertex="1" parent="4yLjCpRfhNSffjeKv-Rc-1">
          <mxGeometry x="-646" y="30" width="20" height="20" as="geometry" />
        </mxCell>
        <mxCell id="4yLjCpRfhNSffjeKv-Rc-3" style="edgeStyle=orthogonalEdgeStyle;rounded=0;orthogonalLoop=1;jettySize=auto;html=1;entryX=1;entryY=0.5;entryDx=0;entryDy=0;" edge="1" parent="4yLjCpRfhNSffjeKv-Rc-1" source="4yLjCpRfhNSffjeKv-Rc-4" target="4yLjCpRfhNSffjeKv-Rc-9">
          <mxGeometry relative="1" as="geometry" />
        </mxCell>
        <mxCell id="4yLjCpRfhNSffjeKv-Rc-4" value="" style="shape=waypoint;sketch=0;size=6;pointerEvents=1;points=[];fillColor=none;resizable=0;rotatable=0;perimeter=centerPerimeter;snapToPoint=1;strokeColor=none;" vertex="1" parent="4yLjCpRfhNSffjeKv-Rc-1">
          <mxGeometry x="-249" y="30" width="20" height="20" as="geometry" />
        </mxCell>
        <mxCell id="4yLjCpRfhNSffjeKv-Rc-5" value="Patient 1" style="rounded=1;whiteSpace=wrap;html=1;align=left;verticalAlign=top;spacingTop=0;spacing=2;spacingLeft=4;fontSize=14;fontStyle=1;strokeColor=#000000;" vertex="1" parent="4yLjCpRfhNSffjeKv-Rc-1">
          <mxGeometry x="-750" y="60" width="130" height="25" as="geometry" />
        </mxCell>
        <mxCell id="4yLjCpRfhNSffjeKv-Rc-6" value="ServiceRequest 1" style="rounded=1;whiteSpace=wrap;html=1;align=left;verticalAlign=top;spacingTop=0;spacing=2;spacingLeft=4;fontSize=14;fontStyle=1;strokeColor=#000000;" vertex="1" parent="4yLjCpRfhNSffjeKv-Rc-1">
          <mxGeometry x="-750" y="90" width="130" height="25" as="geometry" />
        </mxCell>
        <mxCell id="4yLjCpRfhNSffjeKv-Rc-7" value="Patient 1&#39;" style="rounded=1;whiteSpace=wrap;html=1;align=left;verticalAlign=top;spacingTop=0;spacing=2;spacingLeft=4;fontSize=14;fontStyle=1;" vertex="1" parent="4yLjCpRfhNSffjeKv-Rc-1">
          <mxGeometry x="-570" y="60.5" width="130" height="25" as="geometry" />
        </mxCell>
        <mxCell id="4yLjCpRfhNSffjeKv-Rc-8" value="ServiceRequest 1&#39;" style="rounded=1;whiteSpace=wrap;html=1;align=left;verticalAlign=top;spacingTop=0;spacing=2;spacingLeft=4;fontSize=14;fontStyle=1;" vertex="1" parent="4yLjCpRfhNSffjeKv-Rc-1">
          <mxGeometry x="-570" y="90" width="130" height="25" as="geometry" />
        </mxCell>
        <mxCell id="x3YSSAH6AodYZpoDpjWR-0" style="edgeStyle=orthogonalEdgeStyle;rounded=0;orthogonalLoop=1;jettySize=auto;html=1;exitX=0;exitY=0.25;exitDx=0;exitDy=0;entryX=0.25;entryY=0.5;entryDx=0;entryDy=0;entryPerimeter=0;dashed=1;dashPattern=8 8;" edge="1" parent="4yLjCpRfhNSffjeKv-Rc-1" source="4yLjCpRfhNSffjeKv-Rc-9" target="x3YSSAH6AodYZpoDpjWR-1">
          <mxGeometry relative="1" as="geometry">
            <mxPoint x="-590" y="40" as="targetPoint" />
            <Array as="points">
              <mxPoint x="-590" y="131" />
              <mxPoint x="-590" y="40" />
            </Array>
          </mxGeometry>
        </mxCell>
        <mxCell id="4yLjCpRfhNSffjeKv-Rc-9" value="Task 1to2 v2&lt;div&gt;status: accepted&lt;/div&gt;" style="rounded=1;whiteSpace=wrap;html=1;align=left;verticalAlign=top;spacingTop=0;spacing=2;spacingLeft=4;fontSize=14;fontStyle=1;strokeColor=#9673a6;fillColor=#e1d5e7;" vertex="1" parent="4yLjCpRfhNSffjeKv-Rc-1">
          <mxGeometry x="-570" y="120" width="130" height="43.5" as="geometry" />
        </mxCell>
        <mxCell id="4yLjCpRfhNSffjeKv-Rc-10" style="edgeStyle=orthogonalEdgeStyle;rounded=0;orthogonalLoop=1;jettySize=auto;html=1;exitX=0;exitY=0.5;exitDx=0;exitDy=0;entryX=0.75;entryY=0.7;entryDx=0;entryDy=0;entryPerimeter=0;dashed=1;dashPattern=8 8;" edge="1" parent="4yLjCpRfhNSffjeKv-Rc-1" source="4yLjCpRfhNSffjeKv-Rc-9" target="4yLjCpRfhNSffjeKv-Rc-2">
          <mxGeometry relative="1" as="geometry">
            <Array as="points">
              <mxPoint x="-600" y="142" />
              <mxPoint x="-600" y="40" />
            </Array>
          </mxGeometry>
        </mxCell>
        <mxCell id="x3YSSAH6AodYZpoDpjWR-1" value="" style="shape=waypoint;sketch=0;size=6;pointerEvents=1;points=[];fillColor=none;resizable=0;rotatable=0;perimeter=centerPerimeter;snapToPoint=1;strokeColor=none;" vertex="1" parent="4yLjCpRfhNSffjeKv-Rc-1">
          <mxGeometry x="-580" y="30" width="20" height="20" as="geometry" />
        </mxCell>
      </root>
    </mxGraphModel>
  </diagram>
  <diagram name="cpct2" id="l1hivyW6SLzozmFNK7cr">
    <mxGraphModel dx="2375" dy="895" grid="1" gridSize="10" guides="1" tooltips="1" connect="1" arrows="1" fold="1" page="1" pageScale="1" pageWidth="800" pageHeight="500" backgroundImage="{&quot;src&quot;:&quot;data:page/id,pKgziUaKLTQ8jrkvlHAj&quot;}" math="0" shadow="0">
      <root>
        <mxCell id="vTcBNrnRz_nqI1G5ocYJ-0" />
        <mxCell id="vTcBNrnRz_nqI1G5ocYJ-1" parent="vTcBNrnRz_nqI1G5ocYJ-0" />
        <mxCell id="vTcBNrnRz_nqI1G5ocYJ-2" value="" style="shape=waypoint;sketch=0;size=6;pointerEvents=1;points=[];fillColor=none;resizable=0;rotatable=0;perimeter=centerPerimeter;snapToPoint=1;strokeColor=none;" vertex="1" parent="vTcBNrnRz_nqI1G5ocYJ-1">
          <mxGeometry x="-646" y="30" width="20" height="20" as="geometry" />
        </mxCell>
        <mxCell id="vTcBNrnRz_nqI1G5ocYJ-4" value="" style="shape=waypoint;sketch=0;size=6;pointerEvents=1;points=[];fillColor=none;resizable=0;rotatable=0;perimeter=centerPerimeter;snapToPoint=1;strokeColor=none;" vertex="1" parent="vTcBNrnRz_nqI1G5ocYJ-1">
          <mxGeometry x="-249" y="30" width="20" height="20" as="geometry" />
        </mxCell>
        <mxCell id="vTcBNrnRz_nqI1G5ocYJ-5" value="Patient 1" style="rounded=1;whiteSpace=wrap;html=1;align=left;verticalAlign=top;spacingTop=0;spacing=2;spacingLeft=4;fontSize=14;fontStyle=1;strokeColor=#000000;" vertex="1" parent="vTcBNrnRz_nqI1G5ocYJ-1">
          <mxGeometry x="-750" y="60" width="130" height="25" as="geometry" />
        </mxCell>
        <mxCell id="vTcBNrnRz_nqI1G5ocYJ-6" value="ServiceRequest 1" style="rounded=1;whiteSpace=wrap;html=1;align=left;verticalAlign=top;spacingTop=0;spacing=2;spacingLeft=4;fontSize=14;fontStyle=1;strokeColor=#000000;" vertex="1" parent="vTcBNrnRz_nqI1G5ocYJ-1">
          <mxGeometry x="-750" y="90" width="130" height="25" as="geometry" />
        </mxCell>
        <mxCell id="vTcBNrnRz_nqI1G5ocYJ-7" value="Patient 1&#39;" style="rounded=1;whiteSpace=wrap;html=1;align=left;verticalAlign=top;spacingTop=0;spacing=2;spacingLeft=4;fontSize=14;fontStyle=1;" vertex="1" parent="vTcBNrnRz_nqI1G5ocYJ-1">
          <mxGeometry x="-570" y="60.5" width="130" height="25" as="geometry" />
        </mxCell>
        <mxCell id="vTcBNrnRz_nqI1G5ocYJ-8" value="ServiceRequest 1&#39;" style="rounded=1;whiteSpace=wrap;html=1;align=left;verticalAlign=top;spacingTop=0;spacing=2;spacingLeft=4;fontSize=14;fontStyle=1;" vertex="1" parent="vTcBNrnRz_nqI1G5ocYJ-1">
          <mxGeometry x="-570" y="90" width="130" height="25" as="geometry" />
        </mxCell>
        <mxCell id="vTcBNrnRz_nqI1G5ocYJ-10" value="Task 1to2 v2&lt;div&gt;status: accepted&lt;/div&gt;" style="rounded=1;whiteSpace=wrap;html=1;align=left;verticalAlign=top;spacingTop=0;spacing=2;spacingLeft=4;fontSize=14;fontStyle=1;" vertex="1" parent="vTcBNrnRz_nqI1G5ocYJ-1">
          <mxGeometry x="-570" y="120" width="130" height="43.5" as="geometry" />
        </mxCell>
        <mxCell id="QwzgNev4UQ6nCHgeJ-p7-0" style="edgeStyle=orthogonalEdgeStyle;rounded=0;orthogonalLoop=1;jettySize=auto;html=1;entryX=0;entryY=0.25;entryDx=0;entryDy=0;" edge="1" parent="vTcBNrnRz_nqI1G5ocYJ-1" source="vTcBNrnRz_nqI1G5ocYJ-12" target="AvYUocnhGVADz5oNqb1F-0">
          <mxGeometry relative="1" as="geometry">
            <Array as="points">
              <mxPoint x="-590" y="40" />
              <mxPoint x="-590" y="181" />
            </Array>
          </mxGeometry>
        </mxCell>
        <mxCell id="QwzgNev4UQ6nCHgeJ-p7-1" style="edgeStyle=orthogonalEdgeStyle;rounded=0;orthogonalLoop=1;jettySize=auto;html=1;entryX=0;entryY=0.25;entryDx=0;entryDy=0;" edge="1" parent="vTcBNrnRz_nqI1G5ocYJ-1" source="vTcBNrnRz_nqI1G5ocYJ-12" target="AvYUocnhGVADz5oNqb1F-1">
          <mxGeometry relative="1" as="geometry">
            <Array as="points">
              <mxPoint x="-590" y="40" />
              <mxPoint x="-590" y="240" />
            </Array>
          </mxGeometry>
        </mxCell>
        <mxCell id="vTcBNrnRz_nqI1G5ocYJ-12" value="" style="shape=waypoint;sketch=0;size=6;pointerEvents=1;points=[];fillColor=none;resizable=0;rotatable=0;perimeter=centerPerimeter;snapToPoint=1;strokeColor=none;" vertex="1" parent="vTcBNrnRz_nqI1G5ocYJ-1">
          <mxGeometry x="-580" y="30" width="20" height="20" as="geometry" />
        </mxCell>
        <mxCell id="AvYUocnhGVADz5oNqb1F-2" style="edgeStyle=orthogonalEdgeStyle;rounded=0;orthogonalLoop=1;jettySize=auto;html=1;exitX=1;exitY=0.5;exitDx=0;exitDy=0;dashed=1;dashPattern=8 8;" edge="1" parent="vTcBNrnRz_nqI1G5ocYJ-1" source="AvYUocnhGVADz5oNqb1F-0" target="vTcBNrnRz_nqI1G5ocYJ-4">
          <mxGeometry relative="1" as="geometry">
            <Array as="points">
              <mxPoint x="-360" y="192" />
              <mxPoint x="-360" y="40" />
            </Array>
          </mxGeometry>
        </mxCell>
        <mxCell id="AvYUocnhGVADz5oNqb1F-0" value="CarePlan 1&lt;div&gt;- Task 1to2&lt;/div&gt;" style="rounded=1;whiteSpace=wrap;html=1;align=left;verticalAlign=top;spacingTop=0;spacing=2;spacingLeft=4;fontSize=14;fontStyle=1;strokeColor=#9673a6;fillColor=#e1d5e7;" vertex="1" parent="vTcBNrnRz_nqI1G5ocYJ-1">
          <mxGeometry x="-570" y="170.5" width="130" height="43" as="geometry" />
        </mxCell>
        <mxCell id="AvYUocnhGVADz5oNqb1F-4" style="edgeStyle=orthogonalEdgeStyle;rounded=0;orthogonalLoop=1;jettySize=auto;html=1;exitX=0;exitY=0.5;exitDx=0;exitDy=0;dashed=1;dashPattern=8 8;" edge="1" parent="vTcBNrnRz_nqI1G5ocYJ-1" source="AvYUocnhGVADz5oNqb1F-1" target="vTcBNrnRz_nqI1G5ocYJ-2">
          <mxGeometry relative="1" as="geometry">
            <Array as="points">
              <mxPoint x="-600" y="260" />
              <mxPoint x="-600" y="40" />
            </Array>
          </mxGeometry>
        </mxCell>
        <mxCell id="AvYUocnhGVADz5oNqb1F-1" value="CareTeam 1 v2&lt;div&gt;- Patient 1&lt;/div&gt;&lt;div&gt;- Care Provider 1&lt;/div&gt;&lt;div&gt;- Care Provider 2&lt;/div&gt;" style="rounded=1;whiteSpace=wrap;html=1;align=left;verticalAlign=top;spacingTop=0;spacing=2;spacingLeft=4;fontSize=14;fontStyle=1;strokeColor=#9673a6;fillColor=#e1d5e7;" vertex="1" parent="vTcBNrnRz_nqI1G5ocYJ-1">
          <mxGeometry x="-570" y="220.5" width="130" height="79" as="geometry" />
        </mxCell>
        <mxCell id="AvYUocnhGVADz5oNqb1F-3" style="edgeStyle=orthogonalEdgeStyle;rounded=0;orthogonalLoop=1;jettySize=auto;html=1;exitX=1;exitY=0.5;exitDx=0;exitDy=0;entryX=0.58;entryY=0.98;entryDx=0;entryDy=0;entryPerimeter=0;dashed=1;dashPattern=8 8;" edge="1" parent="vTcBNrnRz_nqI1G5ocYJ-1" source="AvYUocnhGVADz5oNqb1F-1" target="vTcBNrnRz_nqI1G5ocYJ-4">
          <mxGeometry relative="1" as="geometry">
            <Array as="points">
              <mxPoint x="-360" y="260" />
              <mxPoint x="-360" y="40" />
            </Array>
          </mxGeometry>
        </mxCell>
        <mxCell id="AvYUocnhGVADz5oNqb1F-5" style="edgeStyle=orthogonalEdgeStyle;rounded=0;orthogonalLoop=1;jettySize=auto;html=1;exitX=0;exitY=0.5;exitDx=0;exitDy=0;entryX=0.75;entryY=0.42;entryDx=0;entryDy=0;entryPerimeter=0;dashed=1;dashPattern=8 8;" edge="1" parent="vTcBNrnRz_nqI1G5ocYJ-1" source="AvYUocnhGVADz5oNqb1F-0" target="vTcBNrnRz_nqI1G5ocYJ-2">
          <mxGeometry relative="1" as="geometry">
            <Array as="points">
              <mxPoint x="-600" y="192" />
              <mxPoint x="-600" y="40" />
            </Array>
          </mxGeometry>
        </mxCell>
      </root>
    </mxGraphModel>
  </diagram>
  <diagram name="cpct3" id="jQ3esQXM-MhWasYh3ws5">
    <mxGraphModel dx="2375" dy="895" grid="1" gridSize="10" guides="1" tooltips="1" connect="1" arrows="1" fold="1" page="1" pageScale="1" pageWidth="800" pageHeight="500" backgroundImage="{&quot;src&quot;:&quot;data:page/id,pKgziUaKLTQ8jrkvlHAj&quot;}" math="0" shadow="0">
      <root>
        <mxCell id="grUNdYkY56CiJf1T9lWx-0" />
        <mxCell id="grUNdYkY56CiJf1T9lWx-1" parent="grUNdYkY56CiJf1T9lWx-0" />
        <mxCell id="grUNdYkY56CiJf1T9lWx-2" value="" style="shape=waypoint;sketch=0;size=6;pointerEvents=1;points=[];fillColor=none;resizable=0;rotatable=0;perimeter=centerPerimeter;snapToPoint=1;strokeColor=none;" vertex="1" parent="grUNdYkY56CiJf1T9lWx-1">
          <mxGeometry x="-646" y="30" width="20" height="20" as="geometry" />
        </mxCell>
        <mxCell id="AREbAgZ0BGCanYVelU-N-1" style="edgeStyle=orthogonalEdgeStyle;rounded=0;orthogonalLoop=1;jettySize=auto;html=1;" edge="1" parent="grUNdYkY56CiJf1T9lWx-1" source="grUNdYkY56CiJf1T9lWx-3">
          <mxGeometry relative="1" as="geometry">
            <mxPoint x="-450" y="40" as="targetPoint" />
          </mxGeometry>
        </mxCell>
        <mxCell id="grUNdYkY56CiJf1T9lWx-3" value="" style="shape=waypoint;sketch=0;size=6;pointerEvents=1;points=[];fillColor=none;resizable=0;rotatable=0;perimeter=centerPerimeter;snapToPoint=1;strokeColor=none;" vertex="1" parent="grUNdYkY56CiJf1T9lWx-1">
          <mxGeometry x="-249" y="30" width="20" height="20" as="geometry" />
        </mxCell>
        <mxCell id="grUNdYkY56CiJf1T9lWx-4" value="Patient 1" style="rounded=1;whiteSpace=wrap;html=1;align=left;verticalAlign=top;spacingTop=0;spacing=2;spacingLeft=4;fontSize=14;fontStyle=1;strokeColor=#000000;" vertex="1" parent="grUNdYkY56CiJf1T9lWx-1">
          <mxGeometry x="-750" y="60" width="130" height="25" as="geometry" />
        </mxCell>
        <mxCell id="grUNdYkY56CiJf1T9lWx-5" value="ServiceRequest 1" style="rounded=1;whiteSpace=wrap;html=1;align=left;verticalAlign=top;spacingTop=0;spacing=2;spacingLeft=4;fontSize=14;fontStyle=1;strokeColor=#000000;" vertex="1" parent="grUNdYkY56CiJf1T9lWx-1">
          <mxGeometry x="-750" y="90" width="130" height="25" as="geometry" />
        </mxCell>
        <mxCell id="grUNdYkY56CiJf1T9lWx-6" value="Patient 1&#39;" style="rounded=1;whiteSpace=wrap;html=1;align=left;verticalAlign=top;spacingTop=0;spacing=2;spacingLeft=4;fontSize=14;fontStyle=1;" vertex="1" parent="grUNdYkY56CiJf1T9lWx-1">
          <mxGeometry x="-570" y="60.5" width="130" height="25" as="geometry" />
        </mxCell>
        <mxCell id="grUNdYkY56CiJf1T9lWx-7" value="ServiceRequest 1&#39;" style="rounded=1;whiteSpace=wrap;html=1;align=left;verticalAlign=top;spacingTop=0;spacing=2;spacingLeft=4;fontSize=14;fontStyle=1;" vertex="1" parent="grUNdYkY56CiJf1T9lWx-1">
          <mxGeometry x="-570" y="90" width="130" height="25" as="geometry" />
        </mxCell>
        <mxCell id="grUNdYkY56CiJf1T9lWx-8" value="Task 1to2 v2&lt;div&gt;status: accepted&lt;/div&gt;" style="rounded=1;whiteSpace=wrap;html=1;align=left;verticalAlign=top;spacingTop=0;spacing=2;spacingLeft=4;fontSize=14;fontStyle=1;" vertex="1" parent="grUNdYkY56CiJf1T9lWx-1">
          <mxGeometry x="-570" y="120" width="130" height="43.5" as="geometry" />
        </mxCell>
        <mxCell id="grUNdYkY56CiJf1T9lWx-9" value="" style="shape=waypoint;sketch=0;size=6;pointerEvents=1;points=[];fillColor=none;resizable=0;rotatable=0;perimeter=centerPerimeter;snapToPoint=1;strokeColor=none;" vertex="1" parent="grUNdYkY56CiJf1T9lWx-1">
          <mxGeometry x="-580" y="30" width="20" height="20" as="geometry" />
        </mxCell>
        <mxCell id="grUNdYkY56CiJf1T9lWx-11" value="CarePlan 1&lt;div&gt;- Task 1to2&lt;/div&gt;" style="rounded=1;whiteSpace=wrap;html=1;align=left;verticalAlign=top;spacingTop=0;spacing=2;spacingLeft=4;fontSize=14;fontStyle=1;" vertex="1" parent="grUNdYkY56CiJf1T9lWx-1">
          <mxGeometry x="-570" y="170.5" width="130" height="43" as="geometry" />
        </mxCell>
        <mxCell id="grUNdYkY56CiJf1T9lWx-13" value="CareTeam 1 v2&lt;div&gt;- Patient 1&lt;/div&gt;&lt;div&gt;- Care Provider 1&lt;/div&gt;&lt;div&gt;- Care Provider 2&lt;/div&gt;" style="rounded=1;whiteSpace=wrap;html=1;align=left;verticalAlign=top;spacingTop=0;spacing=2;spacingLeft=4;fontSize=14;fontStyle=1;" vertex="1" parent="grUNdYkY56CiJf1T9lWx-1">
          <mxGeometry x="-570" y="220.5" width="130" height="79" as="geometry" />
        </mxCell>
        <mxCell id="AMe4MJc5muPN0ZQH5DqE-0" value="CarePlan 1&#39;&lt;div&gt;- Task 1to2&lt;/div&gt;" style="rounded=1;whiteSpace=wrap;html=1;align=left;verticalAlign=top;spacingTop=0;spacing=2;spacingLeft=4;fontSize=14;fontStyle=1;fillColor=#e1d5e7;strokeColor=#9673a6;" vertex="1" parent="grUNdYkY56CiJf1T9lWx-1">
          <mxGeometry x="-249" y="60" width="130" height="43" as="geometry" />
        </mxCell>
        <mxCell id="AMe4MJc5muPN0ZQH5DqE-1" value="CareTeam 1&#39; v2&lt;div&gt;- Patient 1&lt;/div&gt;&lt;div&gt;- Care Provider 1&lt;/div&gt;&lt;div&gt;- Care Provider 2&lt;/div&gt;" style="rounded=1;whiteSpace=wrap;html=1;align=left;verticalAlign=top;spacingTop=0;spacing=2;spacingLeft=4;fontSize=14;fontStyle=1;fillColor=#e1d5e7;strokeColor=#9673a6;" vertex="1" parent="grUNdYkY56CiJf1T9lWx-1">
          <mxGeometry x="-249" y="110" width="130" height="79" as="geometry" />
        </mxCell>
        <mxCell id="pw-dtsdncD9In8QZNJIt-0" value="CarePlan 1&#39;&lt;div&gt;- Task 1to2&lt;/div&gt;" style="rounded=1;whiteSpace=wrap;html=1;align=left;verticalAlign=top;spacingTop=0;spacing=2;spacingLeft=4;fontSize=14;fontStyle=1;fillColor=#e1d5e7;strokeColor=#9673a6;" vertex="1" parent="grUNdYkY56CiJf1T9lWx-1">
          <mxGeometry x="-750" y="120" width="130" height="43" as="geometry" />
        </mxCell>
        <mxCell id="pw-dtsdncD9In8QZNJIt-1" value="CareTeam 1&#39; v2&lt;div&gt;- Patient 1&lt;/div&gt;&lt;div&gt;- Care Provider 1&lt;/div&gt;&lt;div&gt;- Care Provider 2&lt;/div&gt;" style="rounded=1;whiteSpace=wrap;html=1;align=left;verticalAlign=top;spacingTop=0;spacing=2;spacingLeft=4;fontSize=14;fontStyle=1;fillColor=#e1d5e7;strokeColor=#9673a6;" vertex="1" parent="grUNdYkY56CiJf1T9lWx-1">
          <mxGeometry x="-750" y="170" width="130" height="79" as="geometry" />
        </mxCell>
        <mxCell id="AREbAgZ0BGCanYVelU-N-0" style="edgeStyle=orthogonalEdgeStyle;rounded=0;orthogonalLoop=1;jettySize=auto;html=1;entryX=-0.03;entryY=0.58;entryDx=0;entryDy=0;entryPerimeter=0;" edge="1" parent="grUNdYkY56CiJf1T9lWx-1" source="grUNdYkY56CiJf1T9lWx-2" target="grUNdYkY56CiJf1T9lWx-9">
          <mxGeometry relative="1" as="geometry" />
        </mxCell>
      </root>
    </mxGraphModel>
  </diagram>
  <diagram name="expand1" id="qt6N3__fTCwjsJFgaJz9">
    <mxGraphModel dx="2375" dy="895" grid="1" gridSize="10" guides="1" tooltips="1" connect="1" arrows="1" fold="1" page="1" pageScale="1" pageWidth="800" pageHeight="500" backgroundImage="{&quot;src&quot;:&quot;data:page/id,5ro5NTjHnK7VgrN_J4Qa&quot;}" math="0" shadow="0">
      <root>
        <mxCell id="NPjyOGJu3yxk_b19PzJ1-0" />
        <mxCell id="NPjyOGJu3yxk_b19PzJ1-1" parent="NPjyOGJu3yxk_b19PzJ1-0" />
        <mxCell id="lxHcknYKVteBlxNxRjWI-0" value="Patient 1" style="rounded=1;whiteSpace=wrap;html=1;align=left;verticalAlign=top;spacingTop=0;spacing=2;spacingLeft=4;fontSize=14;fontStyle=1;strokeColor=#000000;" vertex="1" parent="NPjyOGJu3yxk_b19PzJ1-1">
          <mxGeometry x="-750" y="60" width="130" height="25" as="geometry" />
        </mxCell>
        <mxCell id="lxHcknYKVteBlxNxRjWI-1" value="ServiceRequest 1" style="rounded=1;whiteSpace=wrap;html=1;align=left;verticalAlign=top;spacingTop=0;spacing=2;spacingLeft=4;fontSize=14;fontStyle=1;strokeColor=#000000;" vertex="1" parent="NPjyOGJu3yxk_b19PzJ1-1">
          <mxGeometry x="-750" y="90" width="130" height="25" as="geometry" />
        </mxCell>
        <mxCell id="lxHcknYKVteBlxNxRjWI-2" value="Patient 1&#39;" style="rounded=1;whiteSpace=wrap;html=1;align=left;verticalAlign=top;spacingTop=0;spacing=2;spacingLeft=4;fontSize=14;fontStyle=1;strokeColor=#000000;" vertex="1" parent="NPjyOGJu3yxk_b19PzJ1-1">
          <mxGeometry x="-570" y="60.5" width="130" height="25" as="geometry" />
        </mxCell>
        <mxCell id="lxHcknYKVteBlxNxRjWI-3" value="ServiceRequest 1&#39;" style="rounded=1;whiteSpace=wrap;html=1;align=left;verticalAlign=top;spacingTop=0;spacing=2;spacingLeft=4;fontSize=14;fontStyle=1;strokeColor=#000000;" vertex="1" parent="NPjyOGJu3yxk_b19PzJ1-1">
          <mxGeometry x="-570" y="90" width="130" height="25" as="geometry" />
        </mxCell>
        <mxCell id="lxHcknYKVteBlxNxRjWI-4" value="Task 1to2 v2" style="rounded=1;whiteSpace=wrap;html=1;align=left;verticalAlign=top;spacingTop=0;spacing=2;spacingLeft=4;fontSize=14;fontStyle=1;strokeColor=#000000;" vertex="1" parent="NPjyOGJu3yxk_b19PzJ1-1">
          <mxGeometry x="-570" y="120" width="130" height="24" as="geometry" />
        </mxCell>
        <mxCell id="lxHcknYKVteBlxNxRjWI-5" value="CarePlan 1&lt;div&gt;- Task 1to2&lt;/div&gt;" style="rounded=1;whiteSpace=wrap;html=1;align=left;verticalAlign=top;spacingTop=0;spacing=2;spacingLeft=4;fontSize=14;fontStyle=1;strokeColor=#000000;" vertex="1" parent="NPjyOGJu3yxk_b19PzJ1-1">
          <mxGeometry x="-569" y="149" width="130" height="41" as="geometry" />
        </mxCell>
        <mxCell id="lxHcknYKVteBlxNxRjWI-6" value="CareTeam 1 v2&lt;div&gt;- Patient 1&lt;/div&gt;&lt;div&gt;- Care Provider 1&lt;/div&gt;&lt;div&gt;- Care Provider 2&lt;/div&gt;" style="rounded=1;whiteSpace=wrap;html=1;align=left;verticalAlign=top;spacingTop=0;spacing=2;spacingLeft=4;fontSize=14;fontStyle=1;strokeColor=#000000;" vertex="1" parent="NPjyOGJu3yxk_b19PzJ1-1">
          <mxGeometry x="-569" y="200" width="130" height="80" as="geometry" />
        </mxCell>
        <mxCell id="lxHcknYKVteBlxNxRjWI-11" value="ServiceRequest 2" style="rounded=1;whiteSpace=wrap;html=1;align=left;verticalAlign=top;spacingTop=0;spacing=2;spacingLeft=4;fontSize=14;fontStyle=1;fillColor=#e1d5e7;strokeColor=#9673a6;" vertex="1" parent="NPjyOGJu3yxk_b19PzJ1-1">
          <mxGeometry x="-249" y="195.5" width="130" height="25" as="geometry" />
        </mxCell>
        <mxCell id="55nkoq0X66emSt63NAJN-0" value="" style="shape=waypoint;sketch=0;size=6;pointerEvents=1;points=[];fillColor=none;resizable=0;rotatable=0;perimeter=centerPerimeter;snapToPoint=1;strokeColor=none;" vertex="1" parent="NPjyOGJu3yxk_b19PzJ1-1">
          <mxGeometry x="-646" y="30" width="20" height="20" as="geometry" />
        </mxCell>
        <mxCell id="55nkoq0X66emSt63NAJN-1" value="" style="shape=waypoint;sketch=0;size=6;pointerEvents=1;points=[];fillColor=none;resizable=0;rotatable=0;perimeter=centerPerimeter;snapToPoint=1;strokeColor=none;" vertex="1" parent="NPjyOGJu3yxk_b19PzJ1-1">
          <mxGeometry x="-249" y="30" width="20" height="20" as="geometry" />
        </mxCell>
        <mxCell id="55nkoq0X66emSt63NAJN-2" value="" style="shape=waypoint;sketch=0;size=6;pointerEvents=1;points=[];fillColor=none;resizable=0;rotatable=0;perimeter=centerPerimeter;snapToPoint=1;strokeColor=none;" vertex="1" parent="NPjyOGJu3yxk_b19PzJ1-1">
          <mxGeometry x="-249" y="280" width="20" height="20" as="geometry" />
        </mxCell>
        <mxCell id="3X4RwoK78aOXYLxBKd23-0" value="CarePlan 1&#39;&lt;div&gt;- Task 1to2&lt;/div&gt;" style="rounded=1;whiteSpace=wrap;html=1;align=left;verticalAlign=top;spacingTop=0;spacing=2;spacingLeft=4;fontSize=14;fontStyle=1;" vertex="1" parent="NPjyOGJu3yxk_b19PzJ1-1">
          <mxGeometry x="-249" y="60.5" width="130" height="43" as="geometry" />
        </mxCell>
        <mxCell id="3X4RwoK78aOXYLxBKd23-1" value="CareTeam 1&#39; v2&lt;div&gt;- Patient 1&lt;/div&gt;&lt;div&gt;- Care Provider 1&lt;/div&gt;&lt;div&gt;- Care Provider 2&lt;/div&gt;" style="rounded=1;whiteSpace=wrap;html=1;align=left;verticalAlign=top;spacingTop=0;spacing=2;spacingLeft=4;fontSize=14;fontStyle=1;" vertex="1" parent="NPjyOGJu3yxk_b19PzJ1-1">
          <mxGeometry x="-249" y="110.5" width="130" height="79" as="geometry" />
        </mxCell>
        <mxCell id="3X4RwoK78aOXYLxBKd23-2" value="CarePlan 1&#39;&lt;div&gt;- Task 1to2&lt;/div&gt;" style="rounded=1;whiteSpace=wrap;html=1;align=left;verticalAlign=top;spacingTop=0;spacing=2;spacingLeft=4;fontSize=14;fontStyle=1;" vertex="1" parent="NPjyOGJu3yxk_b19PzJ1-1">
          <mxGeometry x="-750" y="120" width="130" height="43" as="geometry" />
        </mxCell>
        <mxCell id="3X4RwoK78aOXYLxBKd23-3" value="CareTeam 1&#39; v2&lt;div&gt;- Patient 1&lt;/div&gt;&lt;div&gt;- Care Provider 1&lt;/div&gt;&lt;div&gt;- Care Provider 2&lt;/div&gt;" style="rounded=1;whiteSpace=wrap;html=1;align=left;verticalAlign=top;spacingTop=0;spacing=2;spacingLeft=4;fontSize=14;fontStyle=1;" vertex="1" parent="NPjyOGJu3yxk_b19PzJ1-1">
          <mxGeometry x="-750" y="170" width="130" height="79" as="geometry" />
        </mxCell>
        <mxCell id="tWcaG52zlZm6FLM4zeVO-0" value="" style="shape=actor;whiteSpace=wrap;html=1;fillColor=#000000;" vertex="1" parent="NPjyOGJu3yxk_b19PzJ1-1">
          <mxGeometry x="-150" y="34" width="18" height="22" as="geometry" />
        </mxCell>
      </root>
    </mxGraphModel>
  </diagram>
  <diagram name="expand2" id="2gLYicoZ5LFXR2Ai-i7d">
    <mxGraphModel dx="2375" dy="895" grid="1" gridSize="10" guides="1" tooltips="1" connect="1" arrows="1" fold="1" page="1" pageScale="1" pageWidth="800" pageHeight="500" backgroundImage="{&quot;src&quot;:&quot;data:page/id,5ro5NTjHnK7VgrN_J4Qa&quot;}" math="0" shadow="0">
      <root>
        <mxCell id="CP6EyKwU05hHrU3zOkX6-0" />
        <mxCell id="CP6EyKwU05hHrU3zOkX6-1" parent="CP6EyKwU05hHrU3zOkX6-0" />
        <mxCell id="2QC1ugvd8o-NAEuvLFC9-0" style="edgeStyle=orthogonalEdgeStyle;rounded=0;orthogonalLoop=1;jettySize=auto;html=1;exitX=1;exitY=0.75;exitDx=0;exitDy=0;dashed=1;dashPattern=8 8;entryX=0.643;entryY=0.357;entryDx=0;entryDy=0;entryPerimeter=0;" edge="1" parent="CP6EyKwU05hHrU3zOkX6-1" source="2QC1ugvd8o-NAEuvLFC9-1" target="7Q0yBptKWt7Vc64mkeqA-2">
          <mxGeometry relative="1" as="geometry">
            <mxPoint x="-210" y="290" as="targetPoint" />
            <Array as="points">
              <mxPoint x="-366" y="323" />
              <mxPoint x="-366" y="290" />
            </Array>
          </mxGeometry>
        </mxCell>
        <mxCell id="2QC1ugvd8o-NAEuvLFC9-1" value="Task 2to3&lt;div&gt;status: requested&lt;/div&gt;" style="rounded=1;whiteSpace=wrap;html=1;align=left;verticalAlign=top;spacingTop=0;spacing=2;spacingLeft=4;fontSize=14;fontStyle=1;strokeColor=#9673a6;fillColor=#e1d5e7;" vertex="1" parent="CP6EyKwU05hHrU3zOkX6-1">
          <mxGeometry x="-570" y="290" width="130" height="43.5" as="geometry" />
        </mxCell>
        <mxCell id="2QC1ugvd8o-NAEuvLFC9-2" value="ServiceRequest 2&#39;" style="rounded=1;whiteSpace=wrap;html=1;align=left;verticalAlign=top;spacingTop=0;spacing=2;spacingLeft=4;fontSize=14;fontStyle=1;strokeColor=#000000;" vertex="1" parent="CP6EyKwU05hHrU3zOkX6-1">
          <mxGeometry x="-570" y="340" width="130" height="25" as="geometry" />
        </mxCell>
        <mxCell id="7Q0yBptKWt7Vc64mkeqA-0" value="" style="shape=waypoint;sketch=0;size=6;pointerEvents=1;points=[];fillColor=none;resizable=0;rotatable=0;perimeter=centerPerimeter;snapToPoint=1;strokeColor=none;" vertex="1" parent="CP6EyKwU05hHrU3zOkX6-1">
          <mxGeometry x="-646" y="30" width="20" height="20" as="geometry" />
        </mxCell>
        <mxCell id="H33vOK-Got6gRX6RjOpY-0" style="edgeStyle=orthogonalEdgeStyle;rounded=0;orthogonalLoop=1;jettySize=auto;html=1;entryX=1;entryY=0.25;entryDx=0;entryDy=0;" edge="1" parent="CP6EyKwU05hHrU3zOkX6-1" source="7Q0yBptKWt7Vc64mkeqA-1" target="2QC1ugvd8o-NAEuvLFC9-1">
          <mxGeometry relative="1" as="geometry">
            <Array as="points">
              <mxPoint x="-380" y="40" />
              <mxPoint x="-380" y="300" />
              <mxPoint x="-440" y="300" />
            </Array>
          </mxGeometry>
        </mxCell>
        <mxCell id="7Q0yBptKWt7Vc64mkeqA-1" value="" style="shape=waypoint;sketch=0;size=6;pointerEvents=1;points=[];fillColor=none;resizable=0;rotatable=0;perimeter=centerPerimeter;snapToPoint=1;strokeColor=none;" vertex="1" parent="CP6EyKwU05hHrU3zOkX6-1">
          <mxGeometry x="-249" y="30" width="20" height="20" as="geometry" />
        </mxCell>
        <mxCell id="7Q0yBptKWt7Vc64mkeqA-2" value="" style="shape=waypoint;sketch=0;size=6;pointerEvents=1;points=[];fillColor=none;resizable=0;rotatable=0;perimeter=centerPerimeter;snapToPoint=1;strokeColor=none;" vertex="1" parent="CP6EyKwU05hHrU3zOkX6-1">
          <mxGeometry x="-249" y="280" width="20" height="20" as="geometry" />
        </mxCell>
        <mxCell id="NSrIXZTPWY_S9Vu1dXeH-2" value="ServiceRequest 2" style="rounded=1;whiteSpace=wrap;html=1;align=left;verticalAlign=top;spacingTop=0;spacing=2;spacingLeft=4;fontSize=14;fontStyle=1;fillColor=#e1d5e7;strokeColor=#9673a6;" vertex="1" parent="CP6EyKwU05hHrU3zOkX6-1">
          <mxGeometry x="-249" y="195.5" width="130" height="25" as="geometry" />
        </mxCell>
        <mxCell id="NSrIXZTPWY_S9Vu1dXeH-3" value="CarePlan 1&#39;&lt;div&gt;- Task 1to2&lt;/div&gt;" style="rounded=1;whiteSpace=wrap;html=1;align=left;verticalAlign=top;spacingTop=0;spacing=2;spacingLeft=4;fontSize=14;fontStyle=1;" vertex="1" parent="CP6EyKwU05hHrU3zOkX6-1">
          <mxGeometry x="-249" y="60.5" width="130" height="43" as="geometry" />
        </mxCell>
        <mxCell id="NSrIXZTPWY_S9Vu1dXeH-4" value="CareTeam 1&#39; v2&lt;div&gt;- Patient 1&lt;/div&gt;&lt;div&gt;- Care Provider 1&lt;/div&gt;&lt;div&gt;- Care Provider 2&lt;/div&gt;" style="rounded=1;whiteSpace=wrap;html=1;align=left;verticalAlign=top;spacingTop=0;spacing=2;spacingLeft=4;fontSize=14;fontStyle=1;" vertex="1" parent="CP6EyKwU05hHrU3zOkX6-1">
          <mxGeometry x="-249" y="110.5" width="130" height="79" as="geometry" />
        </mxCell>
        <mxCell id="rA4ZFMDxLLm7ThgjZD0s-0" value="" style="shape=actor;whiteSpace=wrap;html=1;fillColor=#000000;" vertex="1" parent="CP6EyKwU05hHrU3zOkX6-1">
          <mxGeometry x="-150" y="34" width="18" height="22" as="geometry" />
        </mxCell>
        <mxCell id="3XKoZM_jHLjBU3MjDCfX-0" value="Patient 1" style="rounded=1;whiteSpace=wrap;html=1;align=left;verticalAlign=top;spacingTop=0;spacing=2;spacingLeft=4;fontSize=14;fontStyle=1;strokeColor=#000000;" vertex="1" parent="CP6EyKwU05hHrU3zOkX6-1">
          <mxGeometry x="-750" y="60" width="130" height="25" as="geometry" />
        </mxCell>
        <mxCell id="3XKoZM_jHLjBU3MjDCfX-1" value="ServiceRequest 1" style="rounded=1;whiteSpace=wrap;html=1;align=left;verticalAlign=top;spacingTop=0;spacing=2;spacingLeft=4;fontSize=14;fontStyle=1;strokeColor=#000000;" vertex="1" parent="CP6EyKwU05hHrU3zOkX6-1">
          <mxGeometry x="-750" y="90" width="130" height="25" as="geometry" />
        </mxCell>
        <mxCell id="3XKoZM_jHLjBU3MjDCfX-2" value="Patient 1&#39;" style="rounded=1;whiteSpace=wrap;html=1;align=left;verticalAlign=top;spacingTop=0;spacing=2;spacingLeft=4;fontSize=14;fontStyle=1;strokeColor=#000000;" vertex="1" parent="CP6EyKwU05hHrU3zOkX6-1">
          <mxGeometry x="-570" y="60.5" width="130" height="25" as="geometry" />
        </mxCell>
        <mxCell id="3XKoZM_jHLjBU3MjDCfX-3" value="ServiceRequest 1&#39;" style="rounded=1;whiteSpace=wrap;html=1;align=left;verticalAlign=top;spacingTop=0;spacing=2;spacingLeft=4;fontSize=14;fontStyle=1;strokeColor=#000000;" vertex="1" parent="CP6EyKwU05hHrU3zOkX6-1">
          <mxGeometry x="-570" y="90" width="130" height="25" as="geometry" />
        </mxCell>
        <mxCell id="3XKoZM_jHLjBU3MjDCfX-4" value="Task 1to2 v2" style="rounded=1;whiteSpace=wrap;html=1;align=left;verticalAlign=top;spacingTop=0;spacing=2;spacingLeft=4;fontSize=14;fontStyle=1;strokeColor=#000000;" vertex="1" parent="CP6EyKwU05hHrU3zOkX6-1">
          <mxGeometry x="-570" y="120" width="130" height="24" as="geometry" />
        </mxCell>
        <mxCell id="3XKoZM_jHLjBU3MjDCfX-5" value="CarePlan 1&lt;div&gt;- Task 1to2&lt;/div&gt;" style="rounded=1;whiteSpace=wrap;html=1;align=left;verticalAlign=top;spacingTop=0;spacing=2;spacingLeft=4;fontSize=14;fontStyle=1;strokeColor=#000000;" vertex="1" parent="CP6EyKwU05hHrU3zOkX6-1">
          <mxGeometry x="-569" y="149" width="130" height="41" as="geometry" />
        </mxCell>
        <mxCell id="3XKoZM_jHLjBU3MjDCfX-6" value="CareTeam 1 v2&lt;div&gt;- Patient 1&lt;/div&gt;&lt;div&gt;- Care Provider 1&lt;/div&gt;&lt;div&gt;- Care Provider 2&lt;/div&gt;" style="rounded=1;whiteSpace=wrap;html=1;align=left;verticalAlign=top;spacingTop=0;spacing=2;spacingLeft=4;fontSize=14;fontStyle=1;strokeColor=#000000;" vertex="1" parent="CP6EyKwU05hHrU3zOkX6-1">
          <mxGeometry x="-569" y="200" width="130" height="80" as="geometry" />
        </mxCell>
        <mxCell id="3XKoZM_jHLjBU3MjDCfX-7" value="CarePlan 1&#39;&lt;div&gt;- Task 1to2&lt;/div&gt;" style="rounded=1;whiteSpace=wrap;html=1;align=left;verticalAlign=top;spacingTop=0;spacing=2;spacingLeft=4;fontSize=14;fontStyle=1;" vertex="1" parent="CP6EyKwU05hHrU3zOkX6-1">
          <mxGeometry x="-750" y="120" width="130" height="43" as="geometry" />
        </mxCell>
        <mxCell id="3XKoZM_jHLjBU3MjDCfX-8" value="CareTeam 1&#39; v2&lt;div&gt;- Patient 1&lt;/div&gt;&lt;div&gt;- Care Provider 1&lt;/div&gt;&lt;div&gt;- Care Provider 2&lt;/div&gt;" style="rounded=1;whiteSpace=wrap;html=1;align=left;verticalAlign=top;spacingTop=0;spacing=2;spacingLeft=4;fontSize=14;fontStyle=1;" vertex="1" parent="CP6EyKwU05hHrU3zOkX6-1">
          <mxGeometry x="-750" y="170" width="130" height="79" as="geometry" />
        </mxCell>
        <mxCell id="txrCifmYc3vl22Zy7wUn-0" value="" style="shape=waypoint;sketch=0;size=6;pointerEvents=1;points=[];fillColor=none;resizable=0;rotatable=0;perimeter=centerPerimeter;snapToPoint=1;strokeColor=none;" vertex="1" parent="CP6EyKwU05hHrU3zOkX6-1">
          <mxGeometry x="-580" y="30" width="20" height="20" as="geometry" />
        </mxCell>
        <mxCell id="txrCifmYc3vl22Zy7wUn-1" style="edgeStyle=orthogonalEdgeStyle;rounded=0;orthogonalLoop=1;jettySize=auto;html=1;exitX=0;exitY=0.5;exitDx=0;exitDy=0;entryX=0.13;entryY=0.46;entryDx=0;entryDy=0;entryPerimeter=0;dashed=1;dashPattern=8 8;" edge="1" parent="CP6EyKwU05hHrU3zOkX6-1" source="2QC1ugvd8o-NAEuvLFC9-1" target="txrCifmYc3vl22Zy7wUn-0">
          <mxGeometry relative="1" as="geometry">
            <Array as="points">
              <mxPoint x="-600" y="312" />
              <mxPoint x="-600" y="39" />
            </Array>
          </mxGeometry>
        </mxCell>
      </root>
    </mxGraphModel>
  </diagram>
  <diagram name="expand3" id="Ai6FSskdaeQ1sT94rZ74">
    <mxGraphModel dx="2375" dy="895" grid="1" gridSize="10" guides="1" tooltips="1" connect="1" arrows="1" fold="1" page="1" pageScale="1" pageWidth="800" pageHeight="500" backgroundImage="{&quot;src&quot;:&quot;data:page/id,5ro5NTjHnK7VgrN_J4Qa&quot;}" math="0" shadow="0">
      <root>
        <mxCell id="GxC5hQ3N9CfuvLy7UFLK-0" />
        <mxCell id="GxC5hQ3N9CfuvLy7UFLK-1" parent="GxC5hQ3N9CfuvLy7UFLK-0" />
        <mxCell id="k9YVVced2zOiSrUMfuGS-0" style="edgeStyle=orthogonalEdgeStyle;rounded=0;orthogonalLoop=1;jettySize=auto;html=1;exitX=1;exitY=0.5;exitDx=0;exitDy=0;dashed=1;dashPattern=8 8;" edge="1" parent="GxC5hQ3N9CfuvLy7UFLK-1" source="iWZblrpnESq93iwtAFdr-7" target="k9YVVced2zOiSrUMfuGS-4">
          <mxGeometry relative="1" as="geometry">
            <mxPoint x="-220" y="50" as="targetPoint" />
            <mxPoint x="-444" y="180.75" as="sourcePoint" />
            <Array as="points">
              <mxPoint x="-439" y="181" />
              <mxPoint x="-370" y="181" />
              <mxPoint x="-370" y="40" />
            </Array>
          </mxGeometry>
        </mxCell>
        <mxCell id="k9YVVced2zOiSrUMfuGS-1" style="edgeStyle=orthogonalEdgeStyle;rounded=0;orthogonalLoop=1;jettySize=auto;html=1;exitX=0;exitY=0.5;exitDx=0;exitDy=0;entryX=0.35;entryY=0.74;entryDx=0;entryDy=0;entryPerimeter=0;dashed=1;dashPattern=8 8;" edge="1" parent="GxC5hQ3N9CfuvLy7UFLK-1" source="iWZblrpnESq93iwtAFdr-7" target="k9YVVced2zOiSrUMfuGS-3">
          <mxGeometry relative="1" as="geometry">
            <mxPoint x="-610" y="180" as="targetPoint" />
            <mxPoint x="-574" y="180.75" as="sourcePoint" />
            <Array as="points">
              <mxPoint x="-569" y="181" />
              <mxPoint x="-600" y="181" />
              <mxPoint x="-600" y="40" />
            </Array>
          </mxGeometry>
        </mxCell>
        <mxCell id="k9YVVced2zOiSrUMfuGS-3" value="" style="shape=waypoint;sketch=0;size=6;pointerEvents=1;points=[];fillColor=none;resizable=0;rotatable=0;perimeter=centerPerimeter;snapToPoint=1;strokeColor=none;" vertex="1" parent="GxC5hQ3N9CfuvLy7UFLK-1">
          <mxGeometry x="-646" y="30" width="20" height="20" as="geometry" />
        </mxCell>
        <mxCell id="k9YVVced2zOiSrUMfuGS-4" value="" style="shape=waypoint;sketch=0;size=6;pointerEvents=1;points=[];fillColor=none;resizable=0;rotatable=0;perimeter=centerPerimeter;snapToPoint=1;strokeColor=none;" vertex="1" parent="GxC5hQ3N9CfuvLy7UFLK-1">
          <mxGeometry x="-249" y="30" width="20" height="20" as="geometry" />
        </mxCell>
        <mxCell id="k9YVVced2zOiSrUMfuGS-5" value="" style="shape=waypoint;sketch=0;size=6;pointerEvents=1;points=[];fillColor=none;resizable=0;rotatable=0;perimeter=centerPerimeter;snapToPoint=1;strokeColor=none;" vertex="1" parent="GxC5hQ3N9CfuvLy7UFLK-1">
          <mxGeometry x="-249" y="280" width="20" height="20" as="geometry" />
        </mxCell>
        <mxCell id="bwqyjgs1-QBqpl5cEsKQ-2" value="ServiceRequest 2" style="rounded=1;whiteSpace=wrap;html=1;align=left;verticalAlign=top;spacingTop=0;spacing=2;spacingLeft=4;fontSize=14;fontStyle=1;" vertex="1" parent="GxC5hQ3N9CfuvLy7UFLK-1">
          <mxGeometry x="-249" y="207.5" width="130" height="25" as="geometry" />
        </mxCell>
        <mxCell id="bwqyjgs1-QBqpl5cEsKQ-3" value="CarePlan 1&#39; v2&lt;div&gt;- Task 1to2&lt;/div&gt;&lt;div&gt;- Task 2to3&lt;/div&gt;" style="rounded=1;whiteSpace=wrap;html=1;align=left;verticalAlign=top;spacingTop=0;spacing=2;spacingLeft=4;fontSize=14;fontStyle=1;fillColor=#e1d5e7;strokeColor=#9673a6;" vertex="1" parent="GxC5hQ3N9CfuvLy7UFLK-1">
          <mxGeometry x="-249" y="60.5" width="130" height="59.5" as="geometry" />
        </mxCell>
        <mxCell id="bwqyjgs1-QBqpl5cEsKQ-4" value="CareTeam 1&#39; v2&lt;div&gt;- Patient 1&lt;/div&gt;&lt;div&gt;- Care Provider 1&lt;/div&gt;&lt;div&gt;- Care Provider 2&lt;/div&gt;" style="rounded=1;whiteSpace=wrap;html=1;align=left;verticalAlign=top;spacingTop=0;spacing=2;spacingLeft=4;fontSize=14;fontStyle=1;" vertex="1" parent="GxC5hQ3N9CfuvLy7UFLK-1">
          <mxGeometry x="-249" y="122.5" width="130" height="79" as="geometry" />
        </mxCell>
        <mxCell id="u3SgpRhkCroi0rujDJgO-0" value="" style="shape=actor;whiteSpace=wrap;html=1;fillColor=#000000;" vertex="1" parent="GxC5hQ3N9CfuvLy7UFLK-1">
          <mxGeometry x="-150" y="34" width="18" height="22" as="geometry" />
        </mxCell>
        <mxCell id="iWZblrpnESq93iwtAFdr-0" value="Task 2to3&lt;div&gt;status: requested&lt;/div&gt;" style="rounded=1;whiteSpace=wrap;html=1;align=left;verticalAlign=top;spacingTop=0;spacing=2;spacingLeft=4;fontSize=14;fontStyle=1;" vertex="1" parent="GxC5hQ3N9CfuvLy7UFLK-1">
          <mxGeometry x="-570" y="299" width="130" height="43.5" as="geometry" />
        </mxCell>
        <mxCell id="iWZblrpnESq93iwtAFdr-1" value="ServiceRequest 2&#39;" style="rounded=1;whiteSpace=wrap;html=1;align=left;verticalAlign=top;spacingTop=0;spacing=2;spacingLeft=4;fontSize=14;fontStyle=1;" vertex="1" parent="GxC5hQ3N9CfuvLy7UFLK-1">
          <mxGeometry x="-570" y="349" width="130" height="25" as="geometry" />
        </mxCell>
        <mxCell id="iWZblrpnESq93iwtAFdr-2" value="Patient 1" style="rounded=1;whiteSpace=wrap;html=1;align=left;verticalAlign=top;spacingTop=0;spacing=2;spacingLeft=4;fontSize=14;fontStyle=1;" vertex="1" parent="GxC5hQ3N9CfuvLy7UFLK-1">
          <mxGeometry x="-750" y="60" width="130" height="25" as="geometry" />
        </mxCell>
        <mxCell id="iWZblrpnESq93iwtAFdr-3" value="ServiceRequest 1" style="rounded=1;whiteSpace=wrap;html=1;align=left;verticalAlign=top;spacingTop=0;spacing=2;spacingLeft=4;fontSize=14;fontStyle=1;" vertex="1" parent="GxC5hQ3N9CfuvLy7UFLK-1">
          <mxGeometry x="-750" y="90" width="130" height="25" as="geometry" />
        </mxCell>
        <mxCell id="iWZblrpnESq93iwtAFdr-4" value="Patient 1&#39;" style="rounded=1;whiteSpace=wrap;html=1;align=left;verticalAlign=top;spacingTop=0;spacing=2;spacingLeft=4;fontSize=14;fontStyle=1;" vertex="1" parent="GxC5hQ3N9CfuvLy7UFLK-1">
          <mxGeometry x="-570" y="60.5" width="130" height="25" as="geometry" />
        </mxCell>
        <mxCell id="iWZblrpnESq93iwtAFdr-5" value="ServiceRequest 1&#39;" style="rounded=1;whiteSpace=wrap;html=1;align=left;verticalAlign=top;spacingTop=0;spacing=2;spacingLeft=4;fontSize=14;fontStyle=1;" vertex="1" parent="GxC5hQ3N9CfuvLy7UFLK-1">
          <mxGeometry x="-570" y="90" width="130" height="25" as="geometry" />
        </mxCell>
        <mxCell id="iWZblrpnESq93iwtAFdr-6" value="Task 1to2 v2" style="rounded=1;whiteSpace=wrap;html=1;align=left;verticalAlign=top;spacingTop=0;spacing=2;spacingLeft=4;fontSize=14;fontStyle=1;" vertex="1" parent="GxC5hQ3N9CfuvLy7UFLK-1">
          <mxGeometry x="-570" y="120" width="130" height="24" as="geometry" />
        </mxCell>
        <mxCell id="iWZblrpnESq93iwtAFdr-7" value="CarePlan 1 v2&lt;div&gt;- Task 1to2&lt;/div&gt;&lt;div&gt;- Task 2to3&lt;/div&gt;" style="rounded=1;whiteSpace=wrap;html=1;align=left;verticalAlign=top;spacingTop=0;spacing=2;spacingLeft=4;fontSize=14;fontStyle=1;strokeColor=#9673a6;fillColor=#e1d5e7;" vertex="1" parent="GxC5hQ3N9CfuvLy7UFLK-1">
          <mxGeometry x="-569" y="149" width="130" height="61" as="geometry" />
        </mxCell>
        <mxCell id="iWZblrpnESq93iwtAFdr-8" value="CareTeam 1 v2&lt;div&gt;- Patient 1&lt;/div&gt;&lt;div&gt;- Care Provider 1&lt;/div&gt;&lt;div&gt;- Care Provider 2&lt;/div&gt;" style="rounded=1;whiteSpace=wrap;html=1;align=left;verticalAlign=top;spacingTop=0;spacing=2;spacingLeft=4;fontSize=14;fontStyle=1;" vertex="1" parent="GxC5hQ3N9CfuvLy7UFLK-1">
          <mxGeometry x="-569" y="214" width="130" height="80" as="geometry" />
        </mxCell>
        <mxCell id="iWZblrpnESq93iwtAFdr-9" value="CarePlan 1&#39; v2&lt;div&gt;- Task 1to2&lt;/div&gt;&lt;div&gt;- Task 2to3&lt;/div&gt;" style="rounded=1;whiteSpace=wrap;html=1;align=left;verticalAlign=top;spacingTop=0;spacing=2;spacingLeft=4;fontSize=14;fontStyle=1;fillColor=#e1d5e7;strokeColor=#9673a6;" vertex="1" parent="GxC5hQ3N9CfuvLy7UFLK-1">
          <mxGeometry x="-750" y="120" width="130" height="60" as="geometry" />
        </mxCell>
        <mxCell id="iWZblrpnESq93iwtAFdr-10" value="CareTeam 1&#39; v2&lt;div&gt;- Patient 1&lt;/div&gt;&lt;div&gt;- Care Provider 1&lt;/div&gt;&lt;div&gt;- Care Provider 2&lt;/div&gt;" style="rounded=1;whiteSpace=wrap;html=1;align=left;verticalAlign=top;spacingTop=0;spacing=2;spacingLeft=4;fontSize=14;fontStyle=1;" vertex="1" parent="GxC5hQ3N9CfuvLy7UFLK-1">
          <mxGeometry x="-750" y="186" width="130" height="79" as="geometry" />
        </mxCell>
        <mxCell id="SIKuz32ClFZrTZLVHgnJ-1" style="edgeStyle=orthogonalEdgeStyle;rounded=0;orthogonalLoop=1;jettySize=auto;html=1;entryX=0;entryY=0.25;entryDx=0;entryDy=0;" edge="1" parent="GxC5hQ3N9CfuvLy7UFLK-1" source="SIKuz32ClFZrTZLVHgnJ-0" target="iWZblrpnESq93iwtAFdr-7">
          <mxGeometry relative="1" as="geometry">
            <Array as="points">
              <mxPoint x="-590" y="40" />
              <mxPoint x="-590" y="100" />
              <mxPoint x="-589" y="100" />
              <mxPoint x="-589" y="164" />
            </Array>
          </mxGeometry>
        </mxCell>
        <mxCell id="SIKuz32ClFZrTZLVHgnJ-0" value="" style="shape=waypoint;sketch=0;size=6;pointerEvents=1;points=[];fillColor=none;resizable=0;rotatable=0;perimeter=centerPerimeter;snapToPoint=1;strokeColor=none;" vertex="1" parent="GxC5hQ3N9CfuvLy7UFLK-1">
          <mxGeometry x="-580" y="30" width="20" height="20" as="geometry" />
        </mxCell>
      </root>
    </mxGraphModel>
  </diagram>
  <diagram name="expand4" id="Vd-lgx5jXB7hiV37wKxZ">
    <mxGraphModel dx="2375" dy="895" grid="1" gridSize="10" guides="1" tooltips="1" connect="1" arrows="1" fold="1" page="1" pageScale="1" pageWidth="800" pageHeight="500" backgroundImage="{&quot;src&quot;:&quot;data:page/id,5ro5NTjHnK7VgrN_J4Qa&quot;}" math="0" shadow="0">
      <root>
        <mxCell id="LqrtRT-jVCBlymSinLTl-0" />
        <mxCell id="LqrtRT-jVCBlymSinLTl-1" parent="LqrtRT-jVCBlymSinLTl-0" />
        <mxCell id="glWCBDnJKHihPisW450L-0" style="edgeStyle=orthogonalEdgeStyle;rounded=0;orthogonalLoop=1;jettySize=auto;html=1;exitX=1;exitY=0.25;exitDx=0;exitDy=0;dashed=1;dashPattern=8 8;" edge="1" parent="LqrtRT-jVCBlymSinLTl-1" source="9LlI9zBPCkO-OPp1rK1K-0" target="LqrtRT-jVCBlymSinLTl-19">
          <mxGeometry relative="1" as="geometry">
            <mxPoint x="-444" y="334.875" as="sourcePoint" />
            <Array as="points">
              <mxPoint x="-360" y="310" />
              <mxPoint x="-360" y="40" />
            </Array>
          </mxGeometry>
        </mxCell>
        <mxCell id="LqrtRT-jVCBlymSinLTl-18" value="" style="shape=waypoint;sketch=0;size=6;pointerEvents=1;points=[];fillColor=none;resizable=0;rotatable=0;perimeter=centerPerimeter;snapToPoint=1;strokeColor=none;" vertex="1" parent="LqrtRT-jVCBlymSinLTl-1">
          <mxGeometry x="-646" y="30" width="20" height="20" as="geometry" />
        </mxCell>
        <mxCell id="LqrtRT-jVCBlymSinLTl-19" value="" style="shape=waypoint;sketch=0;size=6;pointerEvents=1;points=[];fillColor=none;resizable=0;rotatable=0;perimeter=centerPerimeter;snapToPoint=1;strokeColor=none;" vertex="1" parent="LqrtRT-jVCBlymSinLTl-1">
          <mxGeometry x="-249" y="30" width="20" height="20" as="geometry" />
        </mxCell>
        <mxCell id="glWCBDnJKHihPisW450L-1" style="edgeStyle=orthogonalEdgeStyle;rounded=0;orthogonalLoop=1;jettySize=auto;html=1;entryX=1;entryY=0.75;entryDx=0;entryDy=0;" edge="1" parent="LqrtRT-jVCBlymSinLTl-1" source="LqrtRT-jVCBlymSinLTl-20" target="9LlI9zBPCkO-OPp1rK1K-0">
          <mxGeometry relative="1" as="geometry">
            <mxPoint x="-444" y="356.625" as="targetPoint" />
          </mxGeometry>
        </mxCell>
        <mxCell id="LqrtRT-jVCBlymSinLTl-20" value="" style="shape=waypoint;sketch=0;size=6;pointerEvents=1;points=[];fillColor=none;resizable=0;rotatable=0;perimeter=centerPerimeter;snapToPoint=1;strokeColor=none;" vertex="1" parent="LqrtRT-jVCBlymSinLTl-1">
          <mxGeometry x="-249" y="280" width="20" height="20" as="geometry" />
        </mxCell>
        <mxCell id="qCHZ3FTvMpW86VCe6C_w-0" value="" style="shape=actor;whiteSpace=wrap;html=1;fillColor=#000000;" vertex="1" parent="LqrtRT-jVCBlymSinLTl-1">
          <mxGeometry x="-150" y="34" width="18" height="22" as="geometry" />
        </mxCell>
        <mxCell id="9LlI9zBPCkO-OPp1rK1K-11" style="edgeStyle=orthogonalEdgeStyle;rounded=0;orthogonalLoop=1;jettySize=auto;html=1;exitX=0;exitY=0.25;exitDx=0;exitDy=0;entryX=0.25;entryY=0.54;entryDx=0;entryDy=0;entryPerimeter=0;dashed=1;dashPattern=8 8;" edge="1" parent="LqrtRT-jVCBlymSinLTl-1" source="9LlI9zBPCkO-OPp1rK1K-0" target="9LlI9zBPCkO-OPp1rK1K-12">
          <mxGeometry relative="1" as="geometry">
            <mxPoint x="-590" y="100" as="targetPoint" />
            <Array as="points">
              <mxPoint x="-590" y="310" />
              <mxPoint x="-590" y="41" />
            </Array>
          </mxGeometry>
        </mxCell>
        <mxCell id="9LlI9zBPCkO-OPp1rK1K-0" value="Task 2to3 v2&lt;div&gt;&lt;span style=&quot;background-color: initial;&quot;&gt;status: accepted&lt;/span&gt;&lt;/div&gt;" style="rounded=1;whiteSpace=wrap;html=1;align=left;verticalAlign=top;spacingTop=0;spacing=2;spacingLeft=4;fontSize=14;fontStyle=1;fillColor=#e1d5e7;strokeColor=#9673a6;" vertex="1" parent="LqrtRT-jVCBlymSinLTl-1">
          <mxGeometry x="-570" y="299" width="130" height="43.5" as="geometry" />
        </mxCell>
        <mxCell id="9LlI9zBPCkO-OPp1rK1K-1" value="ServiceRequest 2&#39;" style="rounded=1;whiteSpace=wrap;html=1;align=left;verticalAlign=top;spacingTop=0;spacing=2;spacingLeft=4;fontSize=14;fontStyle=1;strokeColor=#000000;" vertex="1" parent="LqrtRT-jVCBlymSinLTl-1">
          <mxGeometry x="-570" y="349" width="130" height="25" as="geometry" />
        </mxCell>
        <mxCell id="9LlI9zBPCkO-OPp1rK1K-2" value="Patient 1" style="rounded=1;whiteSpace=wrap;html=1;align=left;verticalAlign=top;spacingTop=0;spacing=2;spacingLeft=4;fontSize=14;fontStyle=1;strokeColor=#000000;" vertex="1" parent="LqrtRT-jVCBlymSinLTl-1">
          <mxGeometry x="-750" y="60" width="130" height="25" as="geometry" />
        </mxCell>
        <mxCell id="9LlI9zBPCkO-OPp1rK1K-3" value="ServiceRequest 1" style="rounded=1;whiteSpace=wrap;html=1;align=left;verticalAlign=top;spacingTop=0;spacing=2;spacingLeft=4;fontSize=14;fontStyle=1;strokeColor=#000000;" vertex="1" parent="LqrtRT-jVCBlymSinLTl-1">
          <mxGeometry x="-750" y="90" width="130" height="25" as="geometry" />
        </mxCell>
        <mxCell id="9LlI9zBPCkO-OPp1rK1K-4" value="Patient 1&#39;" style="rounded=1;whiteSpace=wrap;html=1;align=left;verticalAlign=top;spacingTop=0;spacing=2;spacingLeft=4;fontSize=14;fontStyle=1;strokeColor=#000000;" vertex="1" parent="LqrtRT-jVCBlymSinLTl-1">
          <mxGeometry x="-570" y="60.5" width="130" height="25" as="geometry" />
        </mxCell>
        <mxCell id="9LlI9zBPCkO-OPp1rK1K-5" value="ServiceRequest 1&#39;" style="rounded=1;whiteSpace=wrap;html=1;align=left;verticalAlign=top;spacingTop=0;spacing=2;spacingLeft=4;fontSize=14;fontStyle=1;strokeColor=#000000;" vertex="1" parent="LqrtRT-jVCBlymSinLTl-1">
          <mxGeometry x="-570" y="90" width="130" height="25" as="geometry" />
        </mxCell>
        <mxCell id="9LlI9zBPCkO-OPp1rK1K-6" value="Task 1to2 v2" style="rounded=1;whiteSpace=wrap;html=1;align=left;verticalAlign=top;spacingTop=0;spacing=2;spacingLeft=4;fontSize=14;fontStyle=1;strokeColor=#000000;" vertex="1" parent="LqrtRT-jVCBlymSinLTl-1">
          <mxGeometry x="-570" y="120" width="130" height="24" as="geometry" />
        </mxCell>
        <mxCell id="9LlI9zBPCkO-OPp1rK1K-7" value="CarePlan 1 v2&lt;div&gt;- Task 1to2&lt;/div&gt;&lt;div&gt;- Task 2to3&lt;/div&gt;" style="rounded=1;whiteSpace=wrap;html=1;align=left;verticalAlign=top;spacingTop=0;spacing=2;spacingLeft=4;fontSize=14;fontStyle=1;" vertex="1" parent="LqrtRT-jVCBlymSinLTl-1">
          <mxGeometry x="-569" y="149" width="130" height="61" as="geometry" />
        </mxCell>
        <mxCell id="9LlI9zBPCkO-OPp1rK1K-8" value="CareTeam 1 v2&lt;div&gt;- Patient 1&lt;/div&gt;&lt;div&gt;- Care Provider 1&lt;/div&gt;&lt;div&gt;- Care Provider 2&lt;/div&gt;" style="rounded=1;whiteSpace=wrap;html=1;align=left;verticalAlign=top;spacingTop=0;spacing=2;spacingLeft=4;fontSize=14;fontStyle=1;strokeColor=#000000;" vertex="1" parent="LqrtRT-jVCBlymSinLTl-1">
          <mxGeometry x="-569" y="214" width="130" height="80" as="geometry" />
        </mxCell>
        <mxCell id="9LlI9zBPCkO-OPp1rK1K-9" value="CarePlan 1&#39; v2&lt;div&gt;- Task 1to2&lt;/div&gt;&lt;div&gt;- Task 2to3&lt;/div&gt;" style="rounded=1;whiteSpace=wrap;html=1;align=left;verticalAlign=top;spacingTop=0;spacing=2;spacingLeft=4;fontSize=14;fontStyle=1;" vertex="1" parent="LqrtRT-jVCBlymSinLTl-1">
          <mxGeometry x="-750" y="120" width="130" height="60" as="geometry" />
        </mxCell>
        <mxCell id="9LlI9zBPCkO-OPp1rK1K-10" value="CareTeam 1&#39; v2&lt;div&gt;- Patient 1&lt;/div&gt;&lt;div&gt;- Care Provider 1&lt;/div&gt;&lt;div&gt;- Care Provider 2&lt;/div&gt;" style="rounded=1;whiteSpace=wrap;html=1;align=left;verticalAlign=top;spacingTop=0;spacing=2;spacingLeft=4;fontSize=14;fontStyle=1;" vertex="1" parent="LqrtRT-jVCBlymSinLTl-1">
          <mxGeometry x="-750" y="186" width="130" height="79" as="geometry" />
        </mxCell>
        <mxCell id="9LlI9zBPCkO-OPp1rK1K-12" value="" style="shape=waypoint;sketch=0;size=6;pointerEvents=1;points=[];fillColor=none;resizable=0;rotatable=0;perimeter=centerPerimeter;snapToPoint=1;strokeColor=none;" vertex="1" parent="LqrtRT-jVCBlymSinLTl-1">
          <mxGeometry x="-580" y="30" width="20" height="20" as="geometry" />
        </mxCell>
        <mxCell id="kHKtmOcmAQA1gwuyA677-0" value="ServiceRequest 2" style="rounded=1;whiteSpace=wrap;html=1;align=left;verticalAlign=top;spacingTop=0;spacing=2;spacingLeft=4;fontSize=14;fontStyle=1;" vertex="1" parent="LqrtRT-jVCBlymSinLTl-1">
          <mxGeometry x="-249" y="207.5" width="130" height="25" as="geometry" />
        </mxCell>
        <mxCell id="kHKtmOcmAQA1gwuyA677-1" value="CarePlan 1&#39; v2&lt;div&gt;- Task 1to2&lt;/div&gt;&lt;div&gt;- Task 2to3&lt;/div&gt;" style="rounded=1;whiteSpace=wrap;html=1;align=left;verticalAlign=top;spacingTop=0;spacing=2;spacingLeft=4;fontSize=14;fontStyle=1;" vertex="1" parent="LqrtRT-jVCBlymSinLTl-1">
          <mxGeometry x="-249" y="60.5" width="130" height="59.5" as="geometry" />
        </mxCell>
        <mxCell id="kHKtmOcmAQA1gwuyA677-2" value="CareTeam 1&#39; v2&lt;div&gt;- Patient 1&lt;/div&gt;&lt;div&gt;- Care Provider 1&lt;/div&gt;&lt;div&gt;- Care Provider 2&lt;/div&gt;" style="rounded=1;whiteSpace=wrap;html=1;align=left;verticalAlign=top;spacingTop=0;spacing=2;spacingLeft=4;fontSize=14;fontStyle=1;" vertex="1" parent="LqrtRT-jVCBlymSinLTl-1">
          <mxGeometry x="-249" y="122.5" width="130" height="79" as="geometry" />
        </mxCell>
      </root>
    </mxGraphModel>
  </diagram>
  <diagram name="expand5" id="C0KuGoCiTL1rF5dqdoOT">
    <mxGraphModel dx="2375" dy="895" grid="1" gridSize="10" guides="1" tooltips="1" connect="1" arrows="1" fold="1" page="1" pageScale="1" pageWidth="800" pageHeight="500" backgroundImage="{&quot;src&quot;:&quot;data:page/id,5ro5NTjHnK7VgrN_J4Qa&quot;}" math="0" shadow="0">
      <root>
        <mxCell id="XZAML_58GVnW9KxZfaEd-0" />
        <mxCell id="XZAML_58GVnW9KxZfaEd-1" parent="XZAML_58GVnW9KxZfaEd-0" />
        <mxCell id="XZAML_58GVnW9KxZfaEd-13" value="ServiceRequest 2" style="rounded=1;whiteSpace=wrap;html=1;align=left;verticalAlign=top;spacingTop=0;spacing=2;spacingLeft=4;fontSize=14;fontStyle=1;" vertex="1" parent="XZAML_58GVnW9KxZfaEd-1">
          <mxGeometry x="-249" y="225" width="130" height="25" as="geometry" />
        </mxCell>
        <mxCell id="XZAML_58GVnW9KxZfaEd-14" style="edgeStyle=orthogonalEdgeStyle;rounded=0;orthogonalLoop=1;jettySize=auto;html=1;exitX=1;exitY=0.5;exitDx=0;exitDy=0;dashed=1;dashPattern=8 8;" edge="1" parent="XZAML_58GVnW9KxZfaEd-1" target="XZAML_58GVnW9KxZfaEd-18">
          <mxGeometry relative="1" as="geometry">
            <mxPoint x="-444" y="266.25" as="sourcePoint" />
            <Array as="points">
              <mxPoint x="-360" y="266" />
              <mxPoint x="-360" y="40" />
            </Array>
          </mxGeometry>
        </mxCell>
        <mxCell id="XZAML_58GVnW9KxZfaEd-17" value="" style="shape=waypoint;sketch=0;size=6;pointerEvents=1;points=[];fillColor=none;resizable=0;rotatable=0;perimeter=centerPerimeter;snapToPoint=1;strokeColor=none;" vertex="1" parent="XZAML_58GVnW9KxZfaEd-1">
          <mxGeometry x="-646" y="30" width="20" height="20" as="geometry" />
        </mxCell>
        <mxCell id="XZAML_58GVnW9KxZfaEd-18" value="" style="shape=waypoint;sketch=0;size=6;pointerEvents=1;points=[];fillColor=none;resizable=0;rotatable=0;perimeter=centerPerimeter;snapToPoint=1;strokeColor=none;" vertex="1" parent="XZAML_58GVnW9KxZfaEd-1">
          <mxGeometry x="-249" y="30" width="20" height="20" as="geometry" />
        </mxCell>
        <mxCell id="XZAML_58GVnW9KxZfaEd-20" value="" style="shape=waypoint;sketch=0;size=6;pointerEvents=1;points=[];fillColor=none;resizable=0;rotatable=0;perimeter=centerPerimeter;snapToPoint=1;strokeColor=none;" vertex="1" parent="XZAML_58GVnW9KxZfaEd-1">
          <mxGeometry x="-249" y="280" width="20" height="20" as="geometry" />
        </mxCell>
        <mxCell id="01nB_WxG4FOpnwoEFId0-0" style="edgeStyle=orthogonalEdgeStyle;rounded=0;orthogonalLoop=1;jettySize=auto;html=1;entryX=0.66;entryY=0.8;entryDx=0;entryDy=0;entryPerimeter=0;dashed=1;dashPattern=8 8;" edge="1" parent="XZAML_58GVnW9KxZfaEd-1" target="XZAML_58GVnW9KxZfaEd-20">
          <mxGeometry relative="1" as="geometry">
            <mxPoint x="-444" y="266.29999999999995" as="sourcePoint" />
            <Array as="points">
              <mxPoint x="-360" y="266" />
              <mxPoint x="-360" y="290" />
            </Array>
          </mxGeometry>
        </mxCell>
        <mxCell id="01nB_WxG4FOpnwoEFId0-1" style="edgeStyle=orthogonalEdgeStyle;rounded=0;orthogonalLoop=1;jettySize=auto;html=1;entryX=0.63;entryY=0.82;entryDx=0;entryDy=0;entryPerimeter=0;dashed=1;dashPattern=8 8;" edge="1" parent="XZAML_58GVnW9KxZfaEd-1" target="XZAML_58GVnW9KxZfaEd-17">
          <mxGeometry relative="1" as="geometry">
            <mxPoint x="-574" y="266.29999999999995" as="sourcePoint" />
            <Array as="points">
              <mxPoint x="-600" y="266" />
              <mxPoint x="-600" y="40" />
            </Array>
          </mxGeometry>
        </mxCell>
        <mxCell id="hPCdY2xS8gCruOIYPsoN-0" value="" style="shape=actor;whiteSpace=wrap;html=1;fillColor=#000000;" vertex="1" parent="XZAML_58GVnW9KxZfaEd-1">
          <mxGeometry x="-150" y="34" width="18" height="22" as="geometry" />
        </mxCell>
        <mxCell id="65BEEsbXOiDT6FAgYs1i-0" value="Task 2to3 v2&lt;div&gt;&lt;span style=&quot;background-color: initial;&quot;&gt;status: accepted&lt;/span&gt;&lt;/div&gt;" style="rounded=1;whiteSpace=wrap;html=1;align=left;verticalAlign=top;spacingTop=0;spacing=2;spacingLeft=4;fontSize=14;fontStyle=1;" vertex="1" parent="XZAML_58GVnW9KxZfaEd-1">
          <mxGeometry x="-570" y="316" width="130" height="43.5" as="geometry" />
        </mxCell>
        <mxCell id="65BEEsbXOiDT6FAgYs1i-1" value="ServiceRequest 2&#39;" style="rounded=1;whiteSpace=wrap;html=1;align=left;verticalAlign=top;spacingTop=0;spacing=2;spacingLeft=4;fontSize=14;fontStyle=1;strokeColor=#000000;" vertex="1" parent="XZAML_58GVnW9KxZfaEd-1">
          <mxGeometry x="-570" y="366" width="130" height="25" as="geometry" />
        </mxCell>
        <mxCell id="65BEEsbXOiDT6FAgYs1i-2" value="Patient 1" style="rounded=1;whiteSpace=wrap;html=1;align=left;verticalAlign=top;spacingTop=0;spacing=2;spacingLeft=4;fontSize=14;fontStyle=1;strokeColor=#000000;" vertex="1" parent="XZAML_58GVnW9KxZfaEd-1">
          <mxGeometry x="-750" y="60" width="130" height="25" as="geometry" />
        </mxCell>
        <mxCell id="65BEEsbXOiDT6FAgYs1i-3" value="ServiceRequest 1" style="rounded=1;whiteSpace=wrap;html=1;align=left;verticalAlign=top;spacingTop=0;spacing=2;spacingLeft=4;fontSize=14;fontStyle=1;strokeColor=#000000;" vertex="1" parent="XZAML_58GVnW9KxZfaEd-1">
          <mxGeometry x="-750" y="90" width="130" height="25" as="geometry" />
        </mxCell>
        <mxCell id="65BEEsbXOiDT6FAgYs1i-4" value="Patient 1&#39;" style="rounded=1;whiteSpace=wrap;html=1;align=left;verticalAlign=top;spacingTop=0;spacing=2;spacingLeft=4;fontSize=14;fontStyle=1;strokeColor=#000000;" vertex="1" parent="XZAML_58GVnW9KxZfaEd-1">
          <mxGeometry x="-570" y="60.5" width="130" height="25" as="geometry" />
        </mxCell>
        <mxCell id="65BEEsbXOiDT6FAgYs1i-5" value="ServiceRequest 1&#39;" style="rounded=1;whiteSpace=wrap;html=1;align=left;verticalAlign=top;spacingTop=0;spacing=2;spacingLeft=4;fontSize=14;fontStyle=1;strokeColor=#000000;" vertex="1" parent="XZAML_58GVnW9KxZfaEd-1">
          <mxGeometry x="-570" y="90" width="130" height="25" as="geometry" />
        </mxCell>
        <mxCell id="65BEEsbXOiDT6FAgYs1i-6" value="Task 1to2 v2" style="rounded=1;whiteSpace=wrap;html=1;align=left;verticalAlign=top;spacingTop=0;spacing=2;spacingLeft=4;fontSize=14;fontStyle=1;strokeColor=#000000;" vertex="1" parent="XZAML_58GVnW9KxZfaEd-1">
          <mxGeometry x="-570" y="120" width="130" height="24" as="geometry" />
        </mxCell>
        <mxCell id="65BEEsbXOiDT6FAgYs1i-7" value="CarePlan 1 v2&lt;div&gt;- Task 1to2&lt;/div&gt;&lt;div&gt;- Task 2to3&lt;/div&gt;" style="rounded=1;whiteSpace=wrap;html=1;align=left;verticalAlign=top;spacingTop=0;spacing=2;spacingLeft=4;fontSize=14;fontStyle=1;" vertex="1" parent="XZAML_58GVnW9KxZfaEd-1">
          <mxGeometry x="-569" y="149" width="130" height="61" as="geometry" />
        </mxCell>
        <mxCell id="65BEEsbXOiDT6FAgYs1i-8" value="CareTeam 1 v3&lt;div&gt;- Patient 1&lt;/div&gt;&lt;div&gt;- Care Provider 1&lt;/div&gt;&lt;div&gt;- Care Provider 2&lt;/div&gt;&lt;div&gt;- Care Provider 3&lt;/div&gt;" style="rounded=1;whiteSpace=wrap;html=1;align=left;verticalAlign=top;spacingTop=0;spacing=2;spacingLeft=4;fontSize=14;fontStyle=1;strokeColor=#9673a6;fillColor=#e1d5e7;" vertex="1" parent="XZAML_58GVnW9KxZfaEd-1">
          <mxGeometry x="-569" y="214" width="130" height="96" as="geometry" />
        </mxCell>
        <mxCell id="65BEEsbXOiDT6FAgYs1i-9" value="CarePlan 1&#39; v2&lt;div&gt;- Task 1to2&lt;/div&gt;&lt;div&gt;- Task 2to3&lt;/div&gt;" style="rounded=1;whiteSpace=wrap;html=1;align=left;verticalAlign=top;spacingTop=0;spacing=2;spacingLeft=4;fontSize=14;fontStyle=1;" vertex="1" parent="XZAML_58GVnW9KxZfaEd-1">
          <mxGeometry x="-750" y="120" width="130" height="60" as="geometry" />
        </mxCell>
        <mxCell id="mxJ3X0npfLUmkQfAiR9X-1" style="edgeStyle=orthogonalEdgeStyle;rounded=0;orthogonalLoop=1;jettySize=auto;html=1;entryX=0;entryY=0.25;entryDx=0;entryDy=0;" edge="1" parent="XZAML_58GVnW9KxZfaEd-1" source="mxJ3X0npfLUmkQfAiR9X-0" target="65BEEsbXOiDT6FAgYs1i-8">
          <mxGeometry relative="1" as="geometry">
            <Array as="points">
              <mxPoint x="-589" y="40" />
              <mxPoint x="-589" y="238" />
            </Array>
          </mxGeometry>
        </mxCell>
        <mxCell id="mxJ3X0npfLUmkQfAiR9X-0" value="" style="shape=waypoint;sketch=0;size=6;pointerEvents=1;points=[];fillColor=none;resizable=0;rotatable=0;perimeter=centerPerimeter;snapToPoint=1;strokeColor=none;" vertex="1" parent="XZAML_58GVnW9KxZfaEd-1">
          <mxGeometry x="-580" y="30" width="20" height="20" as="geometry" />
        </mxCell>
        <mxCell id="mxJ3X0npfLUmkQfAiR9X-2" value="CareTeam 1&#39; v3&lt;div&gt;- Patient 1&lt;/div&gt;&lt;div&gt;- Care Provider 1&lt;/div&gt;&lt;div&gt;- Care Provider 2&lt;/div&gt;&lt;div&gt;- Care Provider 3&lt;/div&gt;" style="rounded=1;whiteSpace=wrap;html=1;align=left;verticalAlign=top;spacingTop=0;spacing=2;spacingLeft=4;fontSize=14;fontStyle=1;strokeColor=#9673a6;fillColor=#e1d5e7;" vertex="1" parent="XZAML_58GVnW9KxZfaEd-1">
          <mxGeometry x="-750" y="184" width="130" height="96" as="geometry" />
        </mxCell>
        <mxCell id="mxJ3X0npfLUmkQfAiR9X-3" value="CarePlan 1&#39; v2&lt;div&gt;- Task 1to2&lt;/div&gt;&lt;div&gt;- Task 2to3&lt;/div&gt;" style="rounded=1;whiteSpace=wrap;html=1;align=left;verticalAlign=top;spacingTop=0;spacing=2;spacingLeft=4;fontSize=14;fontStyle=1;" vertex="1" parent="XZAML_58GVnW9KxZfaEd-1">
          <mxGeometry x="-249" y="60.5" width="130" height="60" as="geometry" />
        </mxCell>
        <mxCell id="mxJ3X0npfLUmkQfAiR9X-4" value="CareTeam 1 v3&lt;div&gt;- Patient 1&lt;/div&gt;&lt;div&gt;- Care Provider 1&lt;/div&gt;&lt;div&gt;- Care Provider 2&lt;/div&gt;&lt;div&gt;- Care Provider 3&lt;/div&gt;" style="rounded=1;whiteSpace=wrap;html=1;align=left;verticalAlign=top;spacingTop=0;spacing=2;spacingLeft=4;fontSize=14;fontStyle=1;strokeColor=#9673a6;fillColor=#e1d5e7;" vertex="1" parent="XZAML_58GVnW9KxZfaEd-1">
          <mxGeometry x="-249" y="124.5" width="130" height="96" as="geometry" />
        </mxCell>
        <mxCell id="mxJ3X0npfLUmkQfAiR9X-5" value="CarePlan 1&#39; v2&lt;div&gt;- Task 1to2&lt;/div&gt;&lt;div&gt;- Task 2to3&lt;/div&gt;" style="rounded=1;whiteSpace=wrap;html=1;align=left;verticalAlign=top;spacingTop=0;spacing=2;spacingLeft=4;fontSize=14;fontStyle=1;fillColor=#e1d5e7;strokeColor=#9673a6;" vertex="1" parent="XZAML_58GVnW9KxZfaEd-1">
          <mxGeometry x="-249" y="310" width="130" height="60" as="geometry" />
        </mxCell>
        <mxCell id="mxJ3X0npfLUmkQfAiR9X-6" value="CareTeam 1&#39; v3&lt;div&gt;- Patient 1&lt;/div&gt;&lt;div&gt;- Care Provider 1&lt;/div&gt;&lt;div&gt;- Care Provider 2&lt;/div&gt;&lt;div&gt;- Care Provider 3&lt;/div&gt;" style="rounded=1;whiteSpace=wrap;html=1;align=left;verticalAlign=top;spacingTop=0;spacing=2;spacingLeft=4;fontSize=14;fontStyle=1;strokeColor=#9673a6;fillColor=#e1d5e7;" vertex="1" parent="XZAML_58GVnW9KxZfaEd-1">
          <mxGeometry x="-249" y="374" width="130" height="96" as="geometry" />
        </mxCell>
      </root>
    </mxGraphModel>
  </diagram>
  <diagram name="getdata1" id="FzNLvmpxYYv-7vHm9Djq">
    <mxGraphModel dx="2550" dy="994" grid="1" gridSize="10" guides="1" tooltips="1" connect="1" arrows="1" fold="1" page="1" pageScale="1" pageWidth="800" pageHeight="500" backgroundImage="{&quot;src&quot;:&quot;data:page/id,5ro5NTjHnK7VgrN_J4Qa&quot;}" math="0" shadow="0">
      <root>
        <mxCell id="XeCUnvLbQoMzBwxdF4o--0" />
        <mxCell id="XeCUnvLbQoMzBwxdF4o--1" parent="XeCUnvLbQoMzBwxdF4o--0" />
        <mxCell id="XeCUnvLbQoMzBwxdF4o--17" value="" style="shape=waypoint;sketch=0;size=6;pointerEvents=1;points=[];fillColor=none;resizable=0;rotatable=0;perimeter=centerPerimeter;snapToPoint=1;strokeColor=none;" vertex="1" parent="XeCUnvLbQoMzBwxdF4o--1">
          <mxGeometry x="-646" y="30" width="20" height="20" as="geometry" />
        </mxCell>
        <mxCell id="XeCUnvLbQoMzBwxdF4o--18" value="" style="shape=waypoint;sketch=0;size=6;pointerEvents=1;points=[];fillColor=none;resizable=0;rotatable=0;perimeter=centerPerimeter;snapToPoint=1;strokeColor=none;" vertex="1" parent="XeCUnvLbQoMzBwxdF4o--1">
          <mxGeometry x="-249" y="30" width="20" height="20" as="geometry" />
        </mxCell>
        <mxCell id="XeCUnvLbQoMzBwxdF4o--19" value="" style="shape=waypoint;sketch=0;size=6;pointerEvents=1;points=[];fillColor=none;resizable=0;rotatable=0;perimeter=centerPerimeter;snapToPoint=1;strokeColor=none;" vertex="1" parent="XeCUnvLbQoMzBwxdF4o--1">
          <mxGeometry x="-249" y="280" width="20" height="20" as="geometry" />
        </mxCell>
        <mxCell id="zpOY931_V3ErjLJ081RG-0" value="CarePlan 1 v2&lt;div&gt;- Task 1to2&lt;/div&gt;&lt;div&gt;- Task 2to3&lt;/div&gt;" style="rounded=1;whiteSpace=wrap;html=1;align=left;verticalAlign=top;spacingTop=0;spacing=2;spacingLeft=4;fontSize=14;fontStyle=1;strokeColor=#000000;" vertex="1" parent="XeCUnvLbQoMzBwxdF4o--1">
          <mxGeometry x="-574" y="60" width="130" height="63.5" as="geometry" />
        </mxCell>
        <mxCell id="zpOY931_V3ErjLJ081RG-1" value="CareTeam 1 v3&lt;div&gt;- Patient 1&lt;/div&gt;&lt;div&gt;- Care Provider 1&lt;/div&gt;&lt;div&gt;- Care Provider 2&lt;/div&gt;&lt;div&gt;- Care Provider 3&lt;/div&gt;" style="rounded=1;whiteSpace=wrap;html=1;align=left;verticalAlign=top;spacingTop=0;spacing=2;spacingLeft=4;fontSize=14;fontStyle=1;" vertex="1" parent="XeCUnvLbQoMzBwxdF4o--1">
          <mxGeometry x="-574" y="129.5" width="130" height="95.5" as="geometry" />
        </mxCell>
        <mxCell id="zpOY931_V3ErjLJ081RG-2" value="CarePlan 1&#39; v2&lt;div&gt;- Task 1to2&lt;/div&gt;&lt;div&gt;- Task 2to3&lt;/div&gt;" style="rounded=1;whiteSpace=wrap;html=1;align=left;verticalAlign=top;spacingTop=0;spacing=2;spacingLeft=4;fontSize=14;fontStyle=1;strokeColor=#000000;" vertex="1" parent="XeCUnvLbQoMzBwxdF4o--1">
          <mxGeometry x="-755" y="60" width="130" height="63.5" as="geometry" />
        </mxCell>
        <mxCell id="zpOY931_V3ErjLJ081RG-3" value="CareTeam 1&#39; v3&lt;div&gt;- Patient 1&lt;/div&gt;&lt;div&gt;- Care Provider 1&lt;/div&gt;&lt;div&gt;- Care Provider 2&lt;/div&gt;&lt;div&gt;- Care Provider 3&lt;/div&gt;" style="rounded=1;whiteSpace=wrap;html=1;align=left;verticalAlign=top;spacingTop=0;spacing=2;spacingLeft=4;fontSize=14;fontStyle=1;" vertex="1" parent="XeCUnvLbQoMzBwxdF4o--1">
          <mxGeometry x="-755" y="129.5" width="130" height="95.5" as="geometry" />
        </mxCell>
        <mxCell id="zpOY931_V3ErjLJ081RG-4" value="CarePlan 1&#39; v2&lt;div&gt;- Task 1to2&lt;/div&gt;&lt;div&gt;- Task 2to3&lt;/div&gt;" style="rounded=1;whiteSpace=wrap;html=1;align=left;verticalAlign=top;spacingTop=0;spacing=2;spacingLeft=4;fontSize=14;fontStyle=1;strokeColor=#000000;" vertex="1" parent="XeCUnvLbQoMzBwxdF4o--1">
          <mxGeometry x="-249" y="309" width="130" height="63.5" as="geometry" />
        </mxCell>
        <mxCell id="zpOY931_V3ErjLJ081RG-5" value="CareTeam 1&#39; v3&lt;div&gt;- Patient 1&lt;/div&gt;&lt;div&gt;- Care Provider 1&lt;/div&gt;&lt;div&gt;- Care Provider 2&lt;/div&gt;&lt;div&gt;- Care Provider 3&lt;/div&gt;" style="rounded=1;whiteSpace=wrap;html=1;align=left;verticalAlign=top;spacingTop=0;spacing=2;spacingLeft=4;fontSize=14;fontStyle=1;" vertex="1" parent="XeCUnvLbQoMzBwxdF4o--1">
          <mxGeometry x="-249" y="378.5" width="130" height="95.5" as="geometry" />
        </mxCell>
        <mxCell id="gybSY3oJakJjICR4n4_2-0" value="CarePlan 1&#39; v2&lt;div&gt;- Task 1to2&lt;/div&gt;&lt;div&gt;- Task 2to3&lt;/div&gt;" style="rounded=1;whiteSpace=wrap;html=1;align=left;verticalAlign=top;spacingTop=0;spacing=2;spacingLeft=4;fontSize=14;fontStyle=1;strokeColor=#000000;" vertex="1" parent="XeCUnvLbQoMzBwxdF4o--1">
          <mxGeometry x="-249" y="58.5" width="130" height="63.5" as="geometry" />
        </mxCell>
        <mxCell id="gybSY3oJakJjICR4n4_2-1" value="CareTeam 1&#39; v3&lt;div&gt;- Patient 1&lt;/div&gt;&lt;div&gt;- Care Provider 1&lt;/div&gt;&lt;div&gt;- Care Provider 2&lt;/div&gt;&lt;div&gt;- Care Provider 3&lt;/div&gt;" style="rounded=1;whiteSpace=wrap;html=1;align=left;verticalAlign=top;spacingTop=0;spacing=2;spacingLeft=4;fontSize=14;fontStyle=1;strokeWidth=3;" vertex="1" parent="XeCUnvLbQoMzBwxdF4o--1">
          <mxGeometry x="-249" y="128" width="130" height="95.5" as="geometry" />
        </mxCell>
        <mxCell id="Mqr-BQxNECeeVURAFLtb-0" value="" style="shape=actor;whiteSpace=wrap;html=1;fillColor=#000000;" vertex="1" parent="XeCUnvLbQoMzBwxdF4o--1">
          <mxGeometry x="-150" y="34" width="18" height="22" as="geometry" />
        </mxCell>
      </root>
    </mxGraphModel>
  </diagram>
  <diagram name="getdata2" id="f4nthnPXFWkbYnp1HLjI">
    <mxGraphModel dx="2375" dy="895" grid="1" gridSize="10" guides="1" tooltips="1" connect="1" arrows="1" fold="1" page="1" pageScale="1" pageWidth="800" pageHeight="500" backgroundImage="{&quot;src&quot;:&quot;data:page/id,5ro5NTjHnK7VgrN_J4Qa&quot;}" math="0" shadow="0">
      <root>
        <mxCell id="-C527QX52rqFm8yJNc50-0" />
        <mxCell id="-C527QX52rqFm8yJNc50-1" parent="-C527QX52rqFm8yJNc50-0" />
        <mxCell id="-C527QX52rqFm8yJNc50-2" value="" style="shape=waypoint;sketch=0;size=6;pointerEvents=1;points=[];fillColor=none;resizable=0;rotatable=0;perimeter=centerPerimeter;snapToPoint=1;strokeColor=none;" vertex="1" parent="-C527QX52rqFm8yJNc50-1">
          <mxGeometry x="-646" y="30" width="20" height="20" as="geometry" />
        </mxCell>
        <mxCell id="rRN5N_ErJUS8Ru8kvLKi-0" style="edgeStyle=orthogonalEdgeStyle;rounded=0;orthogonalLoop=1;jettySize=auto;html=1;strokeWidth=3;" edge="1" parent="-C527QX52rqFm8yJNc50-1" source="-C527QX52rqFm8yJNc50-3" target="-C527QX52rqFm8yJNc50-2">
          <mxGeometry relative="1" as="geometry">
            <Array as="points">
              <mxPoint x="-430" y="40" />
              <mxPoint x="-430" y="40" />
            </Array>
          </mxGeometry>
        </mxCell>
        <mxCell id="rRN5N_ErJUS8Ru8kvLKi-1" style="edgeStyle=orthogonalEdgeStyle;rounded=0;orthogonalLoop=1;jettySize=auto;html=1;strokeWidth=3;" edge="1" parent="-C527QX52rqFm8yJNc50-1" source="-C527QX52rqFm8yJNc50-3" target="-C527QX52rqFm8yJNc50-4">
          <mxGeometry relative="1" as="geometry">
            <Array as="points">
              <mxPoint x="-360" y="40" />
              <mxPoint x="-360" y="290" />
            </Array>
          </mxGeometry>
        </mxCell>
        <mxCell id="-C527QX52rqFm8yJNc50-3" value="" style="shape=waypoint;sketch=0;size=6;pointerEvents=1;points=[];fillColor=none;resizable=0;rotatable=0;perimeter=centerPerimeter;snapToPoint=1;strokeColor=none;" vertex="1" parent="-C527QX52rqFm8yJNc50-1">
          <mxGeometry x="-249" y="30" width="20" height="20" as="geometry" />
        </mxCell>
        <mxCell id="-C527QX52rqFm8yJNc50-4" value="" style="shape=waypoint;sketch=0;size=6;pointerEvents=1;points=[];fillColor=none;resizable=0;rotatable=0;perimeter=centerPerimeter;snapToPoint=1;strokeColor=none;" vertex="1" parent="-C527QX52rqFm8yJNc50-1">
          <mxGeometry x="-249" y="280" width="20" height="20" as="geometry" />
        </mxCell>
        <mxCell id="-C527QX52rqFm8yJNc50-5" value="CarePlan 1 v2&lt;div&gt;- Task 1to2&lt;/div&gt;&lt;div&gt;- Task 2to3&lt;/div&gt;" style="rounded=1;whiteSpace=wrap;html=1;align=left;verticalAlign=top;spacingTop=0;spacing=2;spacingLeft=4;fontSize=14;fontStyle=1;strokeColor=#000000;" vertex="1" parent="-C527QX52rqFm8yJNc50-1">
          <mxGeometry x="-574" y="60" width="130" height="63.5" as="geometry" />
        </mxCell>
        <mxCell id="-C527QX52rqFm8yJNc50-6" value="CareTeam 1 v3&lt;div&gt;- Patient 1&lt;/div&gt;&lt;div&gt;- Care Provider 1&lt;/div&gt;&lt;div&gt;- Care Provider 2&lt;/div&gt;&lt;div&gt;- Care Provider 3&lt;/div&gt;" style="rounded=1;whiteSpace=wrap;html=1;align=left;verticalAlign=top;spacingTop=0;spacing=2;spacingLeft=4;fontSize=14;fontStyle=1;" vertex="1" parent="-C527QX52rqFm8yJNc50-1">
          <mxGeometry x="-574" y="129.5" width="130" height="95.5" as="geometry" />
        </mxCell>
        <mxCell id="-C527QX52rqFm8yJNc50-7" value="CarePlan 1&#39; v2&lt;div&gt;- Task 1to2&lt;/div&gt;&lt;div&gt;- Task 2to3&lt;/div&gt;" style="rounded=1;whiteSpace=wrap;html=1;align=left;verticalAlign=top;spacingTop=0;spacing=2;spacingLeft=4;fontSize=14;fontStyle=1;strokeColor=#000000;" vertex="1" parent="-C527QX52rqFm8yJNc50-1">
          <mxGeometry x="-755" y="60" width="130" height="63.5" as="geometry" />
        </mxCell>
        <mxCell id="-C527QX52rqFm8yJNc50-8" value="CareTeam 1&#39; v3&lt;div&gt;- Patient 1&lt;/div&gt;&lt;div&gt;- Care Provider 1&lt;/div&gt;&lt;div&gt;- Care Provider 2&lt;/div&gt;&lt;div&gt;- Care Provider 3&lt;/div&gt;" style="rounded=1;whiteSpace=wrap;html=1;align=left;verticalAlign=top;spacingTop=0;spacing=2;spacingLeft=4;fontSize=14;fontStyle=1;strokeWidth=3;" vertex="1" parent="-C527QX52rqFm8yJNc50-1">
          <mxGeometry x="-755" y="129.5" width="130" height="95.5" as="geometry" />
        </mxCell>
        <mxCell id="-C527QX52rqFm8yJNc50-9" value="CarePlan 1&#39; v2&lt;div&gt;- Task 1to2&lt;/div&gt;&lt;div&gt;- Task 2to3&lt;/div&gt;" style="rounded=1;whiteSpace=wrap;html=1;align=left;verticalAlign=top;spacingTop=0;spacing=2;spacingLeft=4;fontSize=14;fontStyle=1;strokeColor=#000000;" vertex="1" parent="-C527QX52rqFm8yJNc50-1">
          <mxGeometry x="-249" y="308" width="130" height="63.5" as="geometry" />
        </mxCell>
        <mxCell id="-C527QX52rqFm8yJNc50-10" value="CareTeam 1&#39; v3&lt;div&gt;- Patient 1&lt;/div&gt;&lt;div&gt;- Care Provider 1&lt;/div&gt;&lt;div&gt;- Care Provider 2&lt;/div&gt;&lt;div&gt;- Care Provider 3&lt;/div&gt;" style="rounded=1;whiteSpace=wrap;html=1;align=left;verticalAlign=top;spacingTop=0;spacing=2;spacingLeft=4;fontSize=14;fontStyle=1;strokeWidth=3;" vertex="1" parent="-C527QX52rqFm8yJNc50-1">
          <mxGeometry x="-249" y="377.5" width="130" height="95.5" as="geometry" />
        </mxCell>
        <mxCell id="-C527QX52rqFm8yJNc50-11" value="CarePlan 1&#39; v2&lt;div&gt;- Task 1to2&lt;/div&gt;&lt;div&gt;- Task 2to3&lt;/div&gt;" style="rounded=1;whiteSpace=wrap;html=1;align=left;verticalAlign=top;spacingTop=0;spacing=2;spacingLeft=4;fontSize=14;fontStyle=1;strokeColor=#000000;" vertex="1" parent="-C527QX52rqFm8yJNc50-1">
          <mxGeometry x="-249" y="58.5" width="130" height="63.5" as="geometry" />
        </mxCell>
        <mxCell id="-C527QX52rqFm8yJNc50-12" value="CareTeam 1&#39; v3&lt;div&gt;- Patient 1&lt;/div&gt;&lt;div&gt;- Care Provider 1&lt;/div&gt;&lt;div&gt;- Care Provider 2&lt;/div&gt;&lt;div&gt;- Care Provider 3&lt;/div&gt;" style="rounded=1;whiteSpace=wrap;html=1;align=left;verticalAlign=top;spacingTop=0;spacing=2;spacingLeft=4;fontSize=14;fontStyle=1;strokeWidth=1;" vertex="1" parent="-C527QX52rqFm8yJNc50-1">
          <mxGeometry x="-249" y="128" width="130" height="95.5" as="geometry" />
        </mxCell>
        <mxCell id="1FUCNouONivpxvvnsuPE-0" value="" style="shape=actor;whiteSpace=wrap;html=1;fillColor=#000000;" vertex="1" parent="-C527QX52rqFm8yJNc50-1">
          <mxGeometry x="-150" y="34" width="18" height="22" as="geometry" />
        </mxCell>
      </root>
    </mxGraphModel>
  </diagram>
  <diagram name="resp1" id="3yJj6Uso3UeUx551AUBd">
    <mxGraphModel dx="1863" dy="703" grid="1" gridSize="10" guides="1" tooltips="1" connect="1" arrows="1" fold="1" page="1" pageScale="1" pageWidth="800" pageHeight="500" backgroundImage="{&quot;src&quot;:&quot;data:page/id,pKgziUaKLTQ8jrkvlHAj&quot;}" math="0" shadow="0">
      <root>
        <mxCell id="bI1yVRGCSn3GKqdNiUPq-0" />
        <mxCell id="bI1yVRGCSn3GKqdNiUPq-1" parent="bI1yVRGCSn3GKqdNiUPq-0" />
        <mxCell id="bI1yVRGCSn3GKqdNiUPq-5" value="" style="shape=waypoint;sketch=0;size=6;pointerEvents=1;points=[];fillColor=none;resizable=0;rotatable=0;perimeter=centerPerimeter;snapToPoint=1;strokeColor=none;" parent="bI1yVRGCSn3GKqdNiUPq-1" vertex="1">
          <mxGeometry x="-646" y="30" width="20" height="20" as="geometry" />
        </mxCell>
        <mxCell id="bI1yVRGCSn3GKqdNiUPq-6" value="" style="shape=waypoint;sketch=0;size=6;pointerEvents=1;points=[];fillColor=none;resizable=0;rotatable=0;perimeter=centerPerimeter;snapToPoint=1;strokeColor=none;" parent="bI1yVRGCSn3GKqdNiUPq-1" vertex="1">
          <mxGeometry x="-249" y="30" width="20" height="20" as="geometry" />
        </mxCell>
        <mxCell id="bI1yVRGCSn3GKqdNiUPq-7" value="Patient 1" style="rounded=1;whiteSpace=wrap;html=1;align=left;verticalAlign=top;spacingTop=0;spacing=2;spacingLeft=4;fontSize=14;fontStyle=1;strokeColor=#000000;" parent="bI1yVRGCSn3GKqdNiUPq-1" vertex="1">
          <mxGeometry x="-750" y="60" width="130" height="25" as="geometry" />
        </mxCell>
        <mxCell id="bI1yVRGCSn3GKqdNiUPq-8" value="ServiceRequest 1" style="rounded=1;whiteSpace=wrap;html=1;align=left;verticalAlign=top;spacingTop=0;spacing=2;spacingLeft=4;fontSize=14;fontStyle=1;strokeColor=#9673a6;fillColor=#e1d5e7;" parent="bI1yVRGCSn3GKqdNiUPq-1" vertex="1">
          <mxGeometry x="-750" y="90" width="130" height="25" as="geometry" />
        </mxCell>
        <mxCell id="kQW9rwuHbcQ-VMpijFG5-0" value="" style="shape=actor;whiteSpace=wrap;html=1;fillColor=#000000;" vertex="1" parent="bI1yVRGCSn3GKqdNiUPq-1">
          <mxGeometry x="-730" y="34" width="18" height="22" as="geometry" />
        </mxCell>
      </root>
    </mxGraphModel>
  </diagram>
  <diagram name="resp2" id="lM903O_lXHwgSRMfI-lE">
    <mxGraphModel dx="1863" dy="703" grid="1" gridSize="10" guides="1" tooltips="1" connect="1" arrows="1" fold="1" page="1" pageScale="1" pageWidth="800" pageHeight="500" backgroundImage="{&quot;src&quot;:&quot;data:page/id,pKgziUaKLTQ8jrkvlHAj&quot;}" math="0" shadow="0">
      <root>
        <mxCell id="dAS7k7pflMumaqPZ4hfn-0" />
        <mxCell id="dAS7k7pflMumaqPZ4hfn-1" parent="dAS7k7pflMumaqPZ4hfn-0" />
        <mxCell id="dAS7k7pflMumaqPZ4hfn-2" style="edgeStyle=orthogonalEdgeStyle;rounded=0;orthogonalLoop=1;jettySize=auto;html=1;entryX=0;entryY=0.5;entryDx=0;entryDy=0;" parent="dAS7k7pflMumaqPZ4hfn-1" source="dAS7k7pflMumaqPZ4hfn-5" target="dAS7k7pflMumaqPZ4hfn-11" edge="1">
          <mxGeometry relative="1" as="geometry" />
        </mxCell>
        <mxCell id="dAS7k7pflMumaqPZ4hfn-3" style="edgeStyle=orthogonalEdgeStyle;rounded=0;orthogonalLoop=1;jettySize=auto;html=1;entryX=0;entryY=0.5;entryDx=0;entryDy=0;" parent="dAS7k7pflMumaqPZ4hfn-1" source="dAS7k7pflMumaqPZ4hfn-5" target="dAS7k7pflMumaqPZ4hfn-10" edge="1">
          <mxGeometry relative="1" as="geometry" />
        </mxCell>
        <mxCell id="dAS7k7pflMumaqPZ4hfn-4" style="edgeStyle=orthogonalEdgeStyle;rounded=0;orthogonalLoop=1;jettySize=auto;html=1;entryX=0;entryY=0.5;entryDx=0;entryDy=0;" parent="dAS7k7pflMumaqPZ4hfn-1" source="dAS7k7pflMumaqPZ4hfn-5" target="dAS7k7pflMumaqPZ4hfn-9" edge="1">
          <mxGeometry relative="1" as="geometry" />
        </mxCell>
        <mxCell id="dAS7k7pflMumaqPZ4hfn-5" value="" style="shape=waypoint;sketch=0;size=6;pointerEvents=1;points=[];fillColor=none;resizable=0;rotatable=0;perimeter=centerPerimeter;snapToPoint=1;strokeColor=none;" parent="dAS7k7pflMumaqPZ4hfn-1" vertex="1">
          <mxGeometry x="-646" y="30" width="20" height="20" as="geometry" />
        </mxCell>
        <mxCell id="dAS7k7pflMumaqPZ4hfn-6" value="" style="shape=waypoint;sketch=0;size=6;pointerEvents=1;points=[];fillColor=none;resizable=0;rotatable=0;perimeter=centerPerimeter;snapToPoint=1;strokeColor=none;" parent="dAS7k7pflMumaqPZ4hfn-1" vertex="1">
          <mxGeometry x="-249" y="30" width="20" height="20" as="geometry" />
        </mxCell>
        <mxCell id="dAS7k7pflMumaqPZ4hfn-7" value="Patient 1" style="rounded=1;whiteSpace=wrap;html=1;align=left;verticalAlign=top;spacingTop=0;spacing=2;spacingLeft=4;fontSize=14;fontStyle=1;strokeColor=#000000;" parent="dAS7k7pflMumaqPZ4hfn-1" vertex="1">
          <mxGeometry x="-750" y="60" width="130" height="25" as="geometry" />
        </mxCell>
        <mxCell id="dAS7k7pflMumaqPZ4hfn-8" value="ServiceRequest 1" style="rounded=1;whiteSpace=wrap;html=1;align=left;verticalAlign=top;spacingTop=0;spacing=2;spacingLeft=4;fontSize=14;fontStyle=1;strokeColor=#000000;" parent="dAS7k7pflMumaqPZ4hfn-1" vertex="1">
          <mxGeometry x="-750" y="90" width="130" height="25" as="geometry" />
        </mxCell>
        <mxCell id="dAS7k7pflMumaqPZ4hfn-9" value="Patient 1&#39;" style="rounded=1;whiteSpace=wrap;html=1;align=left;verticalAlign=top;spacingTop=0;spacing=2;spacingLeft=4;fontSize=14;fontStyle=1;strokeColor=#9673a6;fillColor=#e1d5e7;" parent="dAS7k7pflMumaqPZ4hfn-1" vertex="1">
          <mxGeometry x="-570" y="60.5" width="130" height="25" as="geometry" />
        </mxCell>
        <mxCell id="dAS7k7pflMumaqPZ4hfn-10" value="ServiceRequest 1&#39;" style="rounded=1;whiteSpace=wrap;html=1;align=left;verticalAlign=top;spacingTop=0;spacing=2;spacingLeft=4;fontSize=14;fontStyle=1;strokeColor=#9673a6;fillColor=#e1d5e7;" parent="dAS7k7pflMumaqPZ4hfn-1" vertex="1">
          <mxGeometry x="-570" y="90" width="130" height="25" as="geometry" />
        </mxCell>
        <mxCell id="dAS7k7pflMumaqPZ4hfn-11" value="Task 1to2&lt;div&gt;status: requested&lt;/div&gt;" style="rounded=1;whiteSpace=wrap;html=1;align=left;verticalAlign=top;spacingTop=0;spacing=2;spacingLeft=4;fontSize=14;fontStyle=1;strokeColor=#9673a6;fillColor=#e1d5e7;" parent="dAS7k7pflMumaqPZ4hfn-1" vertex="1">
          <mxGeometry x="-570" y="120" width="130" height="43.5" as="geometry" />
        </mxCell>
        <mxCell id="dAS7k7pflMumaqPZ4hfn-12" style="edgeStyle=orthogonalEdgeStyle;rounded=0;orthogonalLoop=1;jettySize=auto;html=1;entryX=0.9;entryY=0.5;entryDx=0;entryDy=0;entryPerimeter=0;dashed=1;dashPattern=8 8;" parent="dAS7k7pflMumaqPZ4hfn-1" source="dAS7k7pflMumaqPZ4hfn-11" target="dAS7k7pflMumaqPZ4hfn-6" edge="1">
          <mxGeometry relative="1" as="geometry">
            <Array as="points">
              <mxPoint x="-360" y="142" />
              <mxPoint x="-360" y="40" />
            </Array>
          </mxGeometry>
        </mxCell>
        <mxCell id="gERtdmIL6t_LnS-0yoqd-0" value="" style="shape=actor;whiteSpace=wrap;html=1;fillColor=#000000;" vertex="1" parent="dAS7k7pflMumaqPZ4hfn-1">
          <mxGeometry x="-730" y="34" width="18" height="22" as="geometry" />
        </mxCell>
      </root>
    </mxGraphModel>
  </diagram>
  <diagram name="resp3" id="1yNAp5d9YdASA562x_Zg">
    <mxGraphModel dx="1863" dy="703" grid="1" gridSize="10" guides="1" tooltips="1" connect="1" arrows="1" fold="1" page="1" pageScale="1" pageWidth="800" pageHeight="500" backgroundImage="{&quot;src&quot;:&quot;data:page/id,pKgziUaKLTQ8jrkvlHAj&quot;}" math="0" shadow="0">
      <root>
        <mxCell id="Vcmqgs-PAa_tlrt6uTgd-0" />
        <mxCell id="Vcmqgs-PAa_tlrt6uTgd-1" parent="Vcmqgs-PAa_tlrt6uTgd-0" />
        <mxCell id="Vcmqgs-PAa_tlrt6uTgd-5" value="" style="shape=waypoint;sketch=0;size=6;pointerEvents=1;points=[];fillColor=none;resizable=0;rotatable=0;perimeter=centerPerimeter;snapToPoint=1;strokeColor=none;" parent="Vcmqgs-PAa_tlrt6uTgd-1" vertex="1">
          <mxGeometry x="-646" y="30" width="20" height="20" as="geometry" />
        </mxCell>
        <mxCell id="RhH51sPfKmjIyl9az-iw-0" style="edgeStyle=orthogonalEdgeStyle;rounded=0;orthogonalLoop=1;jettySize=auto;html=1;entryX=1;entryY=0.5;entryDx=0;entryDy=0;" parent="Vcmqgs-PAa_tlrt6uTgd-1" source="Vcmqgs-PAa_tlrt6uTgd-6" target="I2Gz3aY7SsZkQNaS_LWs-0" edge="1">
          <mxGeometry relative="1" as="geometry">
            <Array as="points">
              <mxPoint x="-360" y="40" />
              <mxPoint x="-360" y="216" />
            </Array>
          </mxGeometry>
        </mxCell>
        <mxCell id="RhH51sPfKmjIyl9az-iw-1" style="edgeStyle=orthogonalEdgeStyle;rounded=0;orthogonalLoop=1;jettySize=auto;html=1;entryX=1;entryY=0.5;entryDx=0;entryDy=0;" parent="Vcmqgs-PAa_tlrt6uTgd-1" source="Vcmqgs-PAa_tlrt6uTgd-6" target="I2Gz3aY7SsZkQNaS_LWs-1" edge="1">
          <mxGeometry relative="1" as="geometry">
            <Array as="points">
              <mxPoint x="-360" y="40" />
              <mxPoint x="-360" y="281" />
            </Array>
          </mxGeometry>
        </mxCell>
        <mxCell id="Vcmqgs-PAa_tlrt6uTgd-6" value="" style="shape=waypoint;sketch=0;size=6;pointerEvents=1;points=[];fillColor=none;resizable=0;rotatable=0;perimeter=centerPerimeter;snapToPoint=1;strokeColor=none;" parent="Vcmqgs-PAa_tlrt6uTgd-1" vertex="1">
          <mxGeometry x="-249" y="30" width="20" height="20" as="geometry" />
        </mxCell>
        <mxCell id="Vcmqgs-PAa_tlrt6uTgd-7" value="Patient 1" style="rounded=1;whiteSpace=wrap;html=1;align=left;verticalAlign=top;spacingTop=0;spacing=2;spacingLeft=4;fontSize=14;fontStyle=1;strokeColor=#000000;" parent="Vcmqgs-PAa_tlrt6uTgd-1" vertex="1">
          <mxGeometry x="-750" y="60" width="130" height="25" as="geometry" />
        </mxCell>
        <mxCell id="Vcmqgs-PAa_tlrt6uTgd-8" value="ServiceRequest 1" style="rounded=1;whiteSpace=wrap;html=1;align=left;verticalAlign=top;spacingTop=0;spacing=2;spacingLeft=4;fontSize=14;fontStyle=1;strokeColor=#000000;" parent="Vcmqgs-PAa_tlrt6uTgd-1" vertex="1">
          <mxGeometry x="-750" y="90" width="130" height="25" as="geometry" />
        </mxCell>
        <mxCell id="Vcmqgs-PAa_tlrt6uTgd-9" value="Patient 1&#39;" style="rounded=1;whiteSpace=wrap;html=1;align=left;verticalAlign=top;spacingTop=0;spacing=2;spacingLeft=4;fontSize=14;fontStyle=1;" parent="Vcmqgs-PAa_tlrt6uTgd-1" vertex="1">
          <mxGeometry x="-570" y="60.5" width="130" height="25" as="geometry" />
        </mxCell>
        <mxCell id="Vcmqgs-PAa_tlrt6uTgd-10" value="ServiceRequest 1&#39;" style="rounded=1;whiteSpace=wrap;html=1;align=left;verticalAlign=top;spacingTop=0;spacing=2;spacingLeft=4;fontSize=14;fontStyle=1;" parent="Vcmqgs-PAa_tlrt6uTgd-1" vertex="1">
          <mxGeometry x="-570" y="90" width="130" height="25" as="geometry" />
        </mxCell>
        <mxCell id="Vcmqgs-PAa_tlrt6uTgd-11" value="Task 1to2&lt;div&gt;status: requested&lt;/div&gt;" style="rounded=1;whiteSpace=wrap;html=1;align=left;verticalAlign=top;spacingTop=0;spacing=2;spacingLeft=4;fontSize=14;fontStyle=1;" parent="Vcmqgs-PAa_tlrt6uTgd-1" vertex="1">
          <mxGeometry x="-570" y="120" width="130" height="43.5" as="geometry" />
        </mxCell>
        <mxCell id="RhH51sPfKmjIyl9az-iw-2" style="edgeStyle=orthogonalEdgeStyle;rounded=0;orthogonalLoop=1;jettySize=auto;html=1;exitX=0;exitY=0.5;exitDx=0;exitDy=0;dashed=1;dashPattern=8 8;" parent="Vcmqgs-PAa_tlrt6uTgd-1" source="I2Gz3aY7SsZkQNaS_LWs-0" target="Vcmqgs-PAa_tlrt6uTgd-5" edge="1">
          <mxGeometry relative="1" as="geometry">
            <Array as="points">
              <mxPoint x="-600" y="216" />
              <mxPoint x="-600" y="40" />
            </Array>
          </mxGeometry>
        </mxCell>
        <mxCell id="I2Gz3aY7SsZkQNaS_LWs-0" value="Task 2to1&lt;div&gt;part of: Task 1to2&lt;/div&gt;&lt;div&gt;status: ready&lt;br&gt;&lt;/div&gt;&lt;div&gt;input: Quest.1&lt;/div&gt;&lt;div&gt;&lt;br&gt;&lt;/div&gt;" style="rounded=1;whiteSpace=wrap;html=1;align=left;verticalAlign=top;spacingTop=0;spacing=2;spacingLeft=4;fontSize=14;fontStyle=1;strokeColor=#9673a6;fillColor=#e1d5e7;" parent="Vcmqgs-PAa_tlrt6uTgd-1" vertex="1">
          <mxGeometry x="-570" y="169" width="130" height="94" as="geometry" />
        </mxCell>
        <mxCell id="I2Gz3aY7SsZkQNaS_LWs-1" value="Quest. 1" style="rounded=1;whiteSpace=wrap;html=1;align=left;verticalAlign=top;spacingTop=0;spacing=2;spacingLeft=4;fontSize=14;fontStyle=1;strokeColor=#9673a6;fillColor=#e1d5e7;" parent="Vcmqgs-PAa_tlrt6uTgd-1" vertex="1">
          <mxGeometry x="-570" y="268" width="130" height="25" as="geometry" />
        </mxCell>
        <mxCell id="JptFaE2lLfGJanDIbvuh-0" value="" style="shape=actor;whiteSpace=wrap;html=1;fillColor=#000000;" vertex="1" parent="Vcmqgs-PAa_tlrt6uTgd-1">
          <mxGeometry x="-730" y="34" width="18" height="22" as="geometry" />
        </mxCell>
      </root>
    </mxGraphModel>
  </diagram>
  <diagram name="resp4" id="iPa8Mv-D5i3xRkbSUwvm">
    <mxGraphModel dx="1863" dy="703" grid="1" gridSize="10" guides="1" tooltips="1" connect="1" arrows="1" fold="1" page="1" pageScale="1" pageWidth="800" pageHeight="500" backgroundImage="{&quot;src&quot;:&quot;data:page/id,pKgziUaKLTQ8jrkvlHAj&quot;}" math="0" shadow="0">
      <root>
        <mxCell id="gyuiZ338e_YUiDCP-rPJ-0" />
        <mxCell id="gyuiZ338e_YUiDCP-rPJ-1" parent="gyuiZ338e_YUiDCP-rPJ-0" />
        <mxCell id="OAPGTiGcfb3l4oEAKBc3-0" style="edgeStyle=orthogonalEdgeStyle;rounded=0;orthogonalLoop=1;jettySize=auto;html=1;entryX=0;entryY=0.5;entryDx=0;entryDy=0;" parent="gyuiZ338e_YUiDCP-rPJ-1" source="gyuiZ338e_YUiDCP-rPJ-2" target="gyuiZ338e_YUiDCP-rPJ-9" edge="1">
          <mxGeometry relative="1" as="geometry" />
        </mxCell>
        <mxCell id="OAPGTiGcfb3l4oEAKBc3-1" style="edgeStyle=orthogonalEdgeStyle;rounded=0;orthogonalLoop=1;jettySize=auto;html=1;entryX=0;entryY=0.5;entryDx=0;entryDy=0;" parent="gyuiZ338e_YUiDCP-rPJ-1" source="gyuiZ338e_YUiDCP-rPJ-2" target="gyuiZ338e_YUiDCP-rPJ-11" edge="1">
          <mxGeometry relative="1" as="geometry" />
        </mxCell>
        <mxCell id="gyuiZ338e_YUiDCP-rPJ-2" value="" style="shape=waypoint;sketch=0;size=6;pointerEvents=1;points=[];fillColor=none;resizable=0;rotatable=0;perimeter=centerPerimeter;snapToPoint=1;strokeColor=none;" parent="gyuiZ338e_YUiDCP-rPJ-1" vertex="1">
          <mxGeometry x="-646" y="30" width="20" height="20" as="geometry" />
        </mxCell>
        <mxCell id="gyuiZ338e_YUiDCP-rPJ-3" value="" style="shape=waypoint;sketch=0;size=6;pointerEvents=1;points=[];fillColor=none;resizable=0;rotatable=0;perimeter=centerPerimeter;snapToPoint=1;strokeColor=none;" parent="gyuiZ338e_YUiDCP-rPJ-1" vertex="1">
          <mxGeometry x="-249" y="30" width="20" height="20" as="geometry" />
        </mxCell>
        <mxCell id="gyuiZ338e_YUiDCP-rPJ-4" value="Patient 1" style="rounded=1;whiteSpace=wrap;html=1;align=left;verticalAlign=top;spacingTop=0;spacing=2;spacingLeft=4;fontSize=14;fontStyle=1;strokeColor=#000000;" parent="gyuiZ338e_YUiDCP-rPJ-1" vertex="1">
          <mxGeometry x="-750" y="60" width="130" height="25" as="geometry" />
        </mxCell>
        <mxCell id="gyuiZ338e_YUiDCP-rPJ-5" value="ServiceRequest 1" style="rounded=1;whiteSpace=wrap;html=1;align=left;verticalAlign=top;spacingTop=0;spacing=2;spacingLeft=4;fontSize=14;fontStyle=1;strokeColor=#000000;" parent="gyuiZ338e_YUiDCP-rPJ-1" vertex="1">
          <mxGeometry x="-750" y="90" width="130" height="25" as="geometry" />
        </mxCell>
        <mxCell id="gyuiZ338e_YUiDCP-rPJ-6" value="Patient 1&#39;" style="rounded=1;whiteSpace=wrap;html=1;align=left;verticalAlign=top;spacingTop=0;spacing=2;spacingLeft=4;fontSize=14;fontStyle=1;" parent="gyuiZ338e_YUiDCP-rPJ-1" vertex="1">
          <mxGeometry x="-570" y="60.5" width="130" height="25" as="geometry" />
        </mxCell>
        <mxCell id="gyuiZ338e_YUiDCP-rPJ-7" value="ServiceRequest 1&#39;" style="rounded=1;whiteSpace=wrap;html=1;align=left;verticalAlign=top;spacingTop=0;spacing=2;spacingLeft=4;fontSize=14;fontStyle=1;" parent="gyuiZ338e_YUiDCP-rPJ-1" vertex="1">
          <mxGeometry x="-570" y="90" width="130" height="25" as="geometry" />
        </mxCell>
        <mxCell id="gyuiZ338e_YUiDCP-rPJ-8" value="Task 1to2&lt;div&gt;status: requested&lt;/div&gt;" style="rounded=1;whiteSpace=wrap;html=1;align=left;verticalAlign=top;spacingTop=0;spacing=2;spacingLeft=4;fontSize=14;fontStyle=1;" parent="gyuiZ338e_YUiDCP-rPJ-1" vertex="1">
          <mxGeometry x="-570" y="120" width="130" height="43.5" as="geometry" />
        </mxCell>
        <mxCell id="OAPGTiGcfb3l4oEAKBc3-2" style="edgeStyle=orthogonalEdgeStyle;rounded=0;orthogonalLoop=1;jettySize=auto;html=1;dashed=1;dashPattern=8 8;" parent="gyuiZ338e_YUiDCP-rPJ-1" source="gyuiZ338e_YUiDCP-rPJ-9" target="gyuiZ338e_YUiDCP-rPJ-3" edge="1">
          <mxGeometry relative="1" as="geometry">
            <Array as="points">
              <mxPoint x="-360" y="216" />
              <mxPoint x="-360" y="40" />
            </Array>
          </mxGeometry>
        </mxCell>
        <mxCell id="gyuiZ338e_YUiDCP-rPJ-9" value="Task 2to1 v2&lt;div&gt;part of: Task 1to2&lt;/div&gt;&lt;div&gt;status: completed&lt;br&gt;&lt;/div&gt;&lt;div&gt;input: Quest.1&lt;/div&gt;&lt;div&gt;output: QResp.1&lt;/div&gt;" style="rounded=1;whiteSpace=wrap;html=1;align=left;verticalAlign=top;spacingTop=0;spacing=2;spacingLeft=4;fontSize=14;fontStyle=1;strokeColor=#9673a6;fillColor=#e1d5e7;" parent="gyuiZ338e_YUiDCP-rPJ-1" vertex="1">
          <mxGeometry x="-570" y="169" width="130" height="94" as="geometry" />
        </mxCell>
        <mxCell id="gyuiZ338e_YUiDCP-rPJ-10" value="Quest. 1" style="rounded=1;whiteSpace=wrap;html=1;align=left;verticalAlign=top;spacingTop=0;spacing=2;spacingLeft=4;fontSize=14;fontStyle=1;" parent="gyuiZ338e_YUiDCP-rPJ-1" vertex="1">
          <mxGeometry x="-570" y="268" width="130" height="25" as="geometry" />
        </mxCell>
        <mxCell id="gyuiZ338e_YUiDCP-rPJ-11" value="QResp. 1" style="rounded=1;whiteSpace=wrap;html=1;align=left;verticalAlign=top;spacingTop=0;spacing=2;spacingLeft=4;fontSize=14;fontStyle=1;strokeColor=#9673a6;fillColor=#e1d5e7;" parent="gyuiZ338e_YUiDCP-rPJ-1" vertex="1">
          <mxGeometry x="-570" y="298.5" width="130" height="25" as="geometry" />
        </mxCell>
        <mxCell id="eQFowRdWKL43rIR-2j0B-0" value="" style="shape=actor;whiteSpace=wrap;html=1;fillColor=#000000;" vertex="1" parent="gyuiZ338e_YUiDCP-rPJ-1">
          <mxGeometry x="-730" y="34" width="18" height="22" as="geometry" />
        </mxCell>
      </root>
    </mxGraphModel>
  </diagram>
  <diagram name="resp5" id="HsmSCidnHTYQjyLnloSA">
    <mxGraphModel dx="1863" dy="703" grid="1" gridSize="10" guides="1" tooltips="1" connect="1" arrows="1" fold="1" page="1" pageScale="1" pageWidth="800" pageHeight="500" backgroundImage="{&quot;src&quot;:&quot;data:page/id,pKgziUaKLTQ8jrkvlHAj&quot;}" math="0" shadow="0">
      <root>
        <mxCell id="VlNttaw832Xygdbs7Pai-0" />
        <mxCell id="VlNttaw832Xygdbs7Pai-1" parent="VlNttaw832Xygdbs7Pai-0" />
        <mxCell id="VlNttaw832Xygdbs7Pai-4" value="" style="shape=waypoint;sketch=0;size=6;pointerEvents=1;points=[];fillColor=none;resizable=0;rotatable=0;perimeter=centerPerimeter;snapToPoint=1;strokeColor=none;" parent="VlNttaw832Xygdbs7Pai-1" vertex="1">
          <mxGeometry x="-646" y="30" width="20" height="20" as="geometry" />
        </mxCell>
        <mxCell id="j2VLJIplW8BUOmIqjaDn-0" style="edgeStyle=orthogonalEdgeStyle;rounded=0;orthogonalLoop=1;jettySize=auto;html=1;entryX=1;entryY=0.5;entryDx=0;entryDy=0;" parent="VlNttaw832Xygdbs7Pai-1" source="VlNttaw832Xygdbs7Pai-5" target="VlNttaw832Xygdbs7Pai-10" edge="1">
          <mxGeometry relative="1" as="geometry">
            <Array as="points">
              <mxPoint x="-360" y="40" />
              <mxPoint x="-360" y="142" />
            </Array>
          </mxGeometry>
        </mxCell>
        <mxCell id="VlNttaw832Xygdbs7Pai-5" value="" style="shape=waypoint;sketch=0;size=6;pointerEvents=1;points=[];fillColor=none;resizable=0;rotatable=0;perimeter=centerPerimeter;snapToPoint=1;strokeColor=none;" parent="VlNttaw832Xygdbs7Pai-1" vertex="1">
          <mxGeometry x="-249" y="30" width="20" height="20" as="geometry" />
        </mxCell>
        <mxCell id="VlNttaw832Xygdbs7Pai-6" value="Patient 1" style="rounded=1;whiteSpace=wrap;html=1;align=left;verticalAlign=top;spacingTop=0;spacing=2;spacingLeft=4;fontSize=14;fontStyle=1;strokeColor=#000000;" parent="VlNttaw832Xygdbs7Pai-1" vertex="1">
          <mxGeometry x="-750" y="60" width="130" height="25" as="geometry" />
        </mxCell>
        <mxCell id="VlNttaw832Xygdbs7Pai-7" value="ServiceRequest 1" style="rounded=1;whiteSpace=wrap;html=1;align=left;verticalAlign=top;spacingTop=0;spacing=2;spacingLeft=4;fontSize=14;fontStyle=1;strokeColor=#000000;" parent="VlNttaw832Xygdbs7Pai-1" vertex="1">
          <mxGeometry x="-750" y="90" width="130" height="25" as="geometry" />
        </mxCell>
        <mxCell id="VlNttaw832Xygdbs7Pai-8" value="Patient 1&#39;" style="rounded=1;whiteSpace=wrap;html=1;align=left;verticalAlign=top;spacingTop=0;spacing=2;spacingLeft=4;fontSize=14;fontStyle=1;" parent="VlNttaw832Xygdbs7Pai-1" vertex="1">
          <mxGeometry x="-570" y="60.5" width="130" height="25" as="geometry" />
        </mxCell>
        <mxCell id="VlNttaw832Xygdbs7Pai-9" value="ServiceRequest 1&#39;" style="rounded=1;whiteSpace=wrap;html=1;align=left;verticalAlign=top;spacingTop=0;spacing=2;spacingLeft=4;fontSize=14;fontStyle=1;" parent="VlNttaw832Xygdbs7Pai-1" vertex="1">
          <mxGeometry x="-570" y="90" width="130" height="25" as="geometry" />
        </mxCell>
        <mxCell id="VlNttaw832Xygdbs7Pai-10" value="Task 1to2 v2&lt;div&gt;status: accepted&lt;/div&gt;" style="rounded=1;whiteSpace=wrap;html=1;align=left;verticalAlign=top;spacingTop=0;spacing=2;spacingLeft=4;fontSize=14;fontStyle=1;fillColor=#e1d5e7;strokeColor=#9673a6;" parent="VlNttaw832Xygdbs7Pai-1" vertex="1">
          <mxGeometry x="-570" y="120" width="130" height="43.5" as="geometry" />
        </mxCell>
        <mxCell id="VlNttaw832Xygdbs7Pai-12" value="Task 2to1 v2&lt;div&gt;part of: Task 1to2&lt;/div&gt;&lt;div&gt;status: completed&lt;br&gt;&lt;/div&gt;&lt;div&gt;input: Quest.1&lt;/div&gt;&lt;div&gt;output: QResp.1&lt;/div&gt;" style="rounded=1;whiteSpace=wrap;html=1;align=left;verticalAlign=top;spacingTop=0;spacing=2;spacingLeft=4;fontSize=14;fontStyle=1;" parent="VlNttaw832Xygdbs7Pai-1" vertex="1">
          <mxGeometry x="-570" y="169" width="130" height="94" as="geometry" />
        </mxCell>
        <mxCell id="VlNttaw832Xygdbs7Pai-13" value="Quest. 1" style="rounded=1;whiteSpace=wrap;html=1;align=left;verticalAlign=top;spacingTop=0;spacing=2;spacingLeft=4;fontSize=14;fontStyle=1;" parent="VlNttaw832Xygdbs7Pai-1" vertex="1">
          <mxGeometry x="-570" y="268" width="130" height="25" as="geometry" />
        </mxCell>
        <mxCell id="VlNttaw832Xygdbs7Pai-14" value="QResp. 1" style="rounded=1;whiteSpace=wrap;html=1;align=left;verticalAlign=top;spacingTop=0;spacing=2;spacingLeft=4;fontSize=14;fontStyle=1;" parent="VlNttaw832Xygdbs7Pai-1" vertex="1">
          <mxGeometry x="-570" y="298.5" width="130" height="25" as="geometry" />
        </mxCell>
        <mxCell id="j2VLJIplW8BUOmIqjaDn-1" style="edgeStyle=orthogonalEdgeStyle;rounded=0;orthogonalLoop=1;jettySize=auto;html=1;entryX=0.51;entryY=0.98;entryDx=0;entryDy=0;entryPerimeter=0;dashed=1;dashPattern=8 8;" parent="VlNttaw832Xygdbs7Pai-1" source="VlNttaw832Xygdbs7Pai-10" target="VlNttaw832Xygdbs7Pai-4" edge="1">
          <mxGeometry relative="1" as="geometry">
            <Array as="points">
              <mxPoint x="-600" y="142" />
              <mxPoint x="-600" y="40" />
            </Array>
          </mxGeometry>
        </mxCell>
        <mxCell id="fv3IpYDkhyK2FCZmimLC-0" value="" style="shape=actor;whiteSpace=wrap;html=1;fillColor=#000000;" vertex="1" parent="VlNttaw832Xygdbs7Pai-1">
          <mxGeometry x="-730" y="34" width="18" height="22" as="geometry" />
        </mxCell>
      </root>
    </mxGraphModel>
  </diagram>
  <diagram id="pKgziUaKLTQ8jrkvlHAj" name="backgr1-2">
    <mxGraphModel dx="1863" dy="703" grid="1" gridSize="10" guides="1" tooltips="1" connect="1" arrows="1" fold="1" page="1" pageScale="1" pageWidth="800" pageHeight="500" math="0" shadow="0">
      <root>
        <mxCell id="0" />
        <mxCell id="1" parent="0" />
        <mxCell id="Z2wh5E8DGd2KuNheM6mN-1" value="" style="rounded=1;whiteSpace=wrap;html=1;fillColor=none;strokeColor=#E8D0A9;strokeWidth=8;" parent="1" vertex="1">
          <mxGeometry x="-790" y="27" width="381" height="394" as="geometry" />
        </mxCell>
        <mxCell id="Z2wh5E8DGd2KuNheM6mN-2" value="" style="rounded=1;whiteSpace=wrap;html=1;fillColor=none;strokeColor=#c1dad6;strokeWidth=8;" parent="1" vertex="1">
          <mxGeometry x="-320" y="27" width="260" height="223" as="geometry" />
        </mxCell>
        <mxCell id="Z2wh5E8DGd2KuNheM6mN-3" value="&lt;span style=&quot;font-size: 16px;&quot;&gt;&lt;b style=&quot;font-size: 16px;&quot;&gt;Care Provider 1&lt;/b&gt;&lt;/span&gt;" style="rounded=0;whiteSpace=wrap;html=1;verticalAlign=middle;spacingTop=0;fillColor=none;strokeColor=none;fontSize=16;spacing=0;" parent="1" vertex="1">
          <mxGeometry x="-740" y="10" width="130" height="15" as="geometry" />
        </mxCell>
        <mxCell id="Z2wh5E8DGd2KuNheM6mN-4" value="&lt;span style=&quot;font-size: 16px;&quot;&gt;&lt;b style=&quot;font-size: 16px;&quot;&gt;Care Provider 2&lt;/b&gt;&lt;/span&gt;" style="rounded=0;whiteSpace=wrap;html=1;verticalAlign=middle;spacingTop=0;fillColor=none;strokeColor=none;fontSize=16;spacing=0;" parent="1" vertex="1">
          <mxGeometry x="-284" y="10" width="130" height="15" as="geometry" />
        </mxCell>
        <mxCell id="Z2wh5E8DGd2KuNheM6mN-5" value="&lt;span style=&quot;font-size: 16px;&quot;&gt;&lt;b style=&quot;font-size: 16px;&quot;&gt;SCP-service 1&lt;/b&gt;&lt;/span&gt;" style="rounded=0;whiteSpace=wrap;html=1;verticalAlign=middle;spacingTop=0;fillColor=none;strokeColor=none;fontSize=16;spacing=0;" parent="1" vertex="1">
          <mxGeometry x="-573" y="33" width="130" height="15" as="geometry" />
        </mxCell>
        <mxCell id="Z2wh5E8DGd2KuNheM6mN-6" value="&lt;span style=&quot;font-size: 16px;&quot;&gt;&lt;b style=&quot;font-size: 16px;&quot;&gt;EHR 1&lt;/b&gt;&lt;/span&gt;" style="rounded=0;whiteSpace=wrap;html=1;verticalAlign=middle;spacingTop=0;fillColor=none;strokeColor=none;fontSize=16;spacing=0;" parent="1" vertex="1">
          <mxGeometry x="-749" y="33" width="130" height="15" as="geometry" />
        </mxCell>
        <mxCell id="Z2wh5E8DGd2KuNheM6mN-7" value="&lt;span style=&quot;font-size: 16px;&quot;&gt;&lt;b style=&quot;font-size: 16px;&quot;&gt;EHR 2&lt;/b&gt;&lt;/span&gt;" style="rounded=0;whiteSpace=wrap;html=1;verticalAlign=middle;spacingTop=0;fillColor=none;strokeColor=none;fontSize=16;spacing=0;" parent="1" vertex="1">
          <mxGeometry x="-250" y="33" width="130" height="15" as="geometry" />
        </mxCell>
        <mxCell id="gpAB61nWVUEZWP0zvzq_-1" value="" style="endArrow=classic;html=1;rounded=0;startArrow=none;startFill=0;endFill=1;" edge="1" parent="1">
          <mxGeometry width="50" height="50" relative="1" as="geometry">
            <mxPoint x="-269" y="377" as="sourcePoint" />
            <mxPoint x="-215" y="377" as="targetPoint" />
          </mxGeometry>
        </mxCell>
        <mxCell id="gpAB61nWVUEZWP0zvzq_-2" value="" style="endArrow=classic;html=1;rounded=0;startArrow=none;startFill=0;endFill=1;dashed=1;dashPattern=8 8;" edge="1" parent="1">
          <mxGeometry width="50" height="50" relative="1" as="geometry">
            <mxPoint x="-268" y="395" as="sourcePoint" />
            <mxPoint x="-214" y="395" as="targetPoint" />
          </mxGeometry>
        </mxCell>
        <mxCell id="gpAB61nWVUEZWP0zvzq_-3" value="&lt;div style=&quot;&quot;&gt;&lt;b style=&quot;background-color: initial;&quot;&gt;notification&lt;/b&gt;&lt;/div&gt;" style="rounded=0;whiteSpace=wrap;html=1;verticalAlign=middle;spacingTop=0;fillColor=none;strokeColor=none;fontSize=16;spacing=0;align=left;" vertex="1" parent="1">
          <mxGeometry x="-200" y="386" width="100" height="15" as="geometry" />
        </mxCell>
        <mxCell id="gpAB61nWVUEZWP0zvzq_-4" value="&lt;div style=&quot;&quot;&gt;&lt;b&gt;transaction&lt;/b&gt;&lt;/div&gt;" style="rounded=0;whiteSpace=wrap;html=1;verticalAlign=middle;spacingTop=0;fillColor=none;strokeColor=none;fontSize=16;spacing=0;align=left;" vertex="1" parent="1">
          <mxGeometry x="-201" y="367" width="100" height="15" as="geometry" />
        </mxCell>
        <mxCell id="gpAB61nWVUEZWP0zvzq_-5" value="&lt;div style=&quot;&quot;&gt;&lt;b style=&quot;background-color: initial;&quot;&gt;copy of instance&lt;/b&gt;&lt;/div&gt;" style="rounded=0;whiteSpace=wrap;html=1;verticalAlign=middle;spacingTop=0;fillColor=none;strokeColor=none;fontSize=16;spacing=0;align=left;" vertex="1" parent="1">
          <mxGeometry x="-200" y="406" width="130" height="15" as="geometry" />
        </mxCell>
        <mxCell id="gpAB61nWVUEZWP0zvzq_-6" value="&lt;div style=&quot;&quot;&gt;&lt;b style=&quot;background-color: initial;&quot;&gt;&#39;&lt;/b&gt;&lt;/div&gt;" style="rounded=0;whiteSpace=wrap;html=1;verticalAlign=middle;spacingTop=0;fillColor=none;strokeColor=none;fontSize=16;spacing=0;align=left;" vertex="1" parent="1">
          <mxGeometry x="-270" y="406" width="60" height="15" as="geometry" />
        </mxCell>
      </root>
    </mxGraphModel>
  </diagram>
  <diagram id="5ro5NTjHnK7VgrN_J4Qa" name="backgr1-2-3">
    <mxGraphModel dx="1850" dy="597" grid="1" gridSize="10" guides="1" tooltips="1" connect="1" arrows="1" fold="1" page="1" pageScale="1" pageWidth="800" pageHeight="500" background="none" math="0" shadow="0">
      <root>
        <mxCell id="0" />
        <mxCell id="1" parent="0" />
        <mxCell id="C93egfXptNErJaH51v0M-1" value="" style="rounded=1;whiteSpace=wrap;html=1;fillColor=none;strokeColor=#acd1e9;strokeWidth=8;" vertex="1" parent="1">
          <mxGeometry x="-320" y="277" width="260" height="206.5" as="geometry" />
        </mxCell>
        <mxCell id="5kkDVMu98zfOQRz33VzZ-4" value="&lt;span style=&quot;font-size: 16px;&quot;&gt;&lt;b style=&quot;font-size: 16px;&quot;&gt;Care Provider 3&lt;/b&gt;&lt;/span&gt;" style="rounded=0;whiteSpace=wrap;html=1;verticalAlign=middle;spacingTop=0;fillColor=none;strokeColor=none;fontSize=16;spacing=0;" vertex="1" parent="1">
          <mxGeometry x="-284" y="260" width="130" height="15" as="geometry" />
        </mxCell>
        <mxCell id="5kkDVMu98zfOQRz33VzZ-10" value="&lt;span style=&quot;font-size: 16px;&quot;&gt;&lt;b style=&quot;font-size: 16px;&quot;&gt;EHR 3&lt;/b&gt;&lt;/span&gt;" style="rounded=0;whiteSpace=wrap;html=1;verticalAlign=middle;spacingTop=0;fillColor=none;strokeColor=none;fontSize=16;spacing=0;" vertex="1" parent="1">
          <mxGeometry x="-250" y="285.5" width="130" height="15" as="geometry" />
        </mxCell>
        <mxCell id="lzGmVAYP7ThdAIALXzfx-1" value="" style="rounded=1;whiteSpace=wrap;html=1;fillColor=none;strokeColor=#E8D0A9;strokeWidth=8;" vertex="1" parent="1">
          <mxGeometry x="-790" y="27" width="381" height="394" as="geometry" />
        </mxCell>
        <mxCell id="lzGmVAYP7ThdAIALXzfx-2" value="" style="rounded=1;whiteSpace=wrap;html=1;fillColor=none;strokeColor=#c1dad6;strokeWidth=8;" vertex="1" parent="1">
          <mxGeometry x="-320" y="27" width="260" height="223" as="geometry" />
        </mxCell>
        <mxCell id="lzGmVAYP7ThdAIALXzfx-3" value="&lt;span style=&quot;font-size: 16px;&quot;&gt;&lt;b style=&quot;font-size: 16px;&quot;&gt;Care Provider 1&lt;/b&gt;&lt;/span&gt;" style="rounded=0;whiteSpace=wrap;html=1;verticalAlign=middle;spacingTop=0;fillColor=none;strokeColor=none;fontSize=16;spacing=0;" vertex="1" parent="1">
          <mxGeometry x="-740" y="10" width="130" height="15" as="geometry" />
        </mxCell>
        <mxCell id="lzGmVAYP7ThdAIALXzfx-4" value="&lt;span style=&quot;font-size: 16px;&quot;&gt;&lt;b style=&quot;font-size: 16px;&quot;&gt;Care Provider 2&lt;/b&gt;&lt;/span&gt;" style="rounded=0;whiteSpace=wrap;html=1;verticalAlign=middle;spacingTop=0;fillColor=none;strokeColor=none;fontSize=16;spacing=0;" vertex="1" parent="1">
          <mxGeometry x="-284" y="10" width="130" height="15" as="geometry" />
        </mxCell>
        <mxCell id="lzGmVAYP7ThdAIALXzfx-5" value="&lt;span style=&quot;font-size: 16px;&quot;&gt;&lt;b style=&quot;font-size: 16px;&quot;&gt;SCP-service 1&lt;/b&gt;&lt;/span&gt;" style="rounded=0;whiteSpace=wrap;html=1;verticalAlign=middle;spacingTop=0;fillColor=none;strokeColor=none;fontSize=16;spacing=0;" vertex="1" parent="1">
          <mxGeometry x="-573" y="33" width="130" height="15" as="geometry" />
        </mxCell>
        <mxCell id="lzGmVAYP7ThdAIALXzfx-6" value="&lt;span style=&quot;font-size: 16px;&quot;&gt;&lt;b style=&quot;font-size: 16px;&quot;&gt;EHR 1&lt;/b&gt;&lt;/span&gt;" style="rounded=0;whiteSpace=wrap;html=1;verticalAlign=middle;spacingTop=0;fillColor=none;strokeColor=none;fontSize=16;spacing=0;" vertex="1" parent="1">
          <mxGeometry x="-749" y="33" width="130" height="15" as="geometry" />
        </mxCell>
        <mxCell id="lzGmVAYP7ThdAIALXzfx-7" value="&lt;span style=&quot;font-size: 16px;&quot;&gt;&lt;b style=&quot;font-size: 16px;&quot;&gt;EHR 2&lt;/b&gt;&lt;/span&gt;" style="rounded=0;whiteSpace=wrap;html=1;verticalAlign=middle;spacingTop=0;fillColor=none;strokeColor=none;fontSize=16;spacing=0;" vertex="1" parent="1">
          <mxGeometry x="-250" y="33" width="130" height="15" as="geometry" />
        </mxCell>
      </root>
    </mxGraphModel>
  </diagram>
  <diagram name="Copy of backgr1-2-3" id="Malu-tmPhw4m06UdH12n">
    <mxGraphModel dx="2375" dy="895" grid="1" gridSize="10" guides="1" tooltips="1" connect="1" arrows="1" fold="1" page="1" pageScale="1" pageWidth="800" pageHeight="500" background="none" math="0" shadow="0">
      <root>
        <mxCell id="xXTt-s-VW0lyaJBYWZ7J-0" />
        <mxCell id="xXTt-s-VW0lyaJBYWZ7J-1" parent="xXTt-s-VW0lyaJBYWZ7J-0" />
        <mxCell id="W5HbMMCL30XUHzTQvqtH-0" value="" style="rounded=1;whiteSpace=wrap;html=1;fillColor=#E8D0A9;strokeColor=none;strokeWidth=8;" vertex="1" parent="xXTt-s-VW0lyaJBYWZ7J-1">
          <mxGeometry x="-780" y="27" width="170" height="394" as="geometry" />
        </mxCell>
        <mxCell id="xXTt-s-VW0lyaJBYWZ7J-2" value="" style="rounded=1;whiteSpace=wrap;html=1;fillColor=#ACD1E9;strokeColor=none;strokeWidth=8;" vertex="1" parent="xXTt-s-VW0lyaJBYWZ7J-1">
          <mxGeometry x="-290" y="277" width="170" height="213" as="geometry" />
        </mxCell>
        <mxCell id="xXTt-s-VW0lyaJBYWZ7J-3" value="&lt;span style=&quot;font-size: 16px;&quot;&gt;&lt;b style=&quot;font-size: 16px;&quot;&gt;Care Provider 3&lt;/b&gt;&lt;/span&gt;" style="rounded=0;whiteSpace=wrap;html=1;verticalAlign=middle;spacingTop=0;fillColor=none;strokeColor=none;fontSize=16;spacing=0;" vertex="1" parent="xXTt-s-VW0lyaJBYWZ7J-1">
          <mxGeometry x="-284" y="260" width="130" height="15" as="geometry" />
        </mxCell>
        <mxCell id="xXTt-s-VW0lyaJBYWZ7J-4" value="&lt;span style=&quot;font-size: 16px;&quot;&gt;&lt;b style=&quot;font-size: 16px;&quot;&gt;EHR 3&lt;/b&gt;&lt;/span&gt;" style="rounded=0;whiteSpace=wrap;html=1;verticalAlign=middle;spacingTop=0;fillColor=none;strokeColor=none;fontSize=16;spacing=0;" vertex="1" parent="xXTt-s-VW0lyaJBYWZ7J-1">
          <mxGeometry x="-250" y="285.5" width="130" height="15" as="geometry" />
        </mxCell>
        <mxCell id="xXTt-s-VW0lyaJBYWZ7J-5" value="" style="rounded=1;whiteSpace=wrap;html=1;fillColor=#E8D0A9;strokeColor=none;strokeWidth=8;" vertex="1" parent="xXTt-s-VW0lyaJBYWZ7J-1">
          <mxGeometry x="-580" y="27" width="171" height="394" as="geometry" />
        </mxCell>
        <mxCell id="xXTt-s-VW0lyaJBYWZ7J-6" value="" style="rounded=1;whiteSpace=wrap;html=1;fillColor=#C1DAD6;strokeColor=none;strokeWidth=8;" vertex="1" parent="xXTt-s-VW0lyaJBYWZ7J-1">
          <mxGeometry x="-290" y="27" width="170" height="223" as="geometry" />
        </mxCell>
        <mxCell id="xXTt-s-VW0lyaJBYWZ7J-7" value="&lt;span style=&quot;font-size: 16px;&quot;&gt;&lt;b style=&quot;font-size: 16px;&quot;&gt;Care Provider 1&lt;/b&gt;&lt;/span&gt;" style="rounded=0;whiteSpace=wrap;html=1;verticalAlign=middle;spacingTop=0;fillColor=none;strokeColor=none;fontSize=16;spacing=0;" vertex="1" parent="xXTt-s-VW0lyaJBYWZ7J-1">
          <mxGeometry x="-740" y="10" width="130" height="15" as="geometry" />
        </mxCell>
        <mxCell id="xXTt-s-VW0lyaJBYWZ7J-8" value="&lt;span style=&quot;font-size: 16px;&quot;&gt;&lt;b style=&quot;font-size: 16px;&quot;&gt;Care Provider 2&lt;/b&gt;&lt;/span&gt;" style="rounded=0;whiteSpace=wrap;html=1;verticalAlign=middle;spacingTop=0;fillColor=none;strokeColor=none;fontSize=16;spacing=0;" vertex="1" parent="xXTt-s-VW0lyaJBYWZ7J-1">
          <mxGeometry x="-284" y="10" width="130" height="15" as="geometry" />
        </mxCell>
        <mxCell id="xXTt-s-VW0lyaJBYWZ7J-9" value="&lt;span style=&quot;font-size: 16px;&quot;&gt;&lt;b style=&quot;font-size: 16px;&quot;&gt;SCP-service 1&lt;/b&gt;&lt;/span&gt;" style="rounded=0;whiteSpace=wrap;html=1;verticalAlign=middle;spacingTop=0;fillColor=none;strokeColor=none;fontSize=16;spacing=0;" vertex="1" parent="xXTt-s-VW0lyaJBYWZ7J-1">
          <mxGeometry x="-573" y="33" width="130" height="15" as="geometry" />
        </mxCell>
        <mxCell id="xXTt-s-VW0lyaJBYWZ7J-10" value="&lt;span style=&quot;font-size: 16px;&quot;&gt;&lt;b style=&quot;font-size: 16px;&quot;&gt;EHR 1&lt;/b&gt;&lt;/span&gt;" style="rounded=0;whiteSpace=wrap;html=1;verticalAlign=middle;spacingTop=0;fillColor=none;strokeColor=none;fontSize=16;spacing=0;" vertex="1" parent="xXTt-s-VW0lyaJBYWZ7J-1">
          <mxGeometry x="-749" y="33" width="130" height="15" as="geometry" />
        </mxCell>
        <mxCell id="xXTt-s-VW0lyaJBYWZ7J-11" value="&lt;span style=&quot;font-size: 16px;&quot;&gt;&lt;b style=&quot;font-size: 16px;&quot;&gt;EHR 2&lt;/b&gt;&lt;/span&gt;" style="rounded=0;whiteSpace=wrap;html=1;verticalAlign=middle;spacingTop=0;fillColor=none;strokeColor=none;fontSize=16;spacing=0;" vertex="1" parent="xXTt-s-VW0lyaJBYWZ7J-1">
          <mxGeometry x="-250" y="33" width="130" height="15" as="geometry" />
        </mxCell>
      </root>
    </mxGraphModel>
  </diagram>
</mxfile>
